<svg width="44" height="44" viewBox="0 0 44 44" fill="none" xmlns="http://www.w3.org/2000/svg">
<path d="M7.78277 0H36.2173C40.507 0 44 3.58286 44 7.98286V36.0171C44 40.4171 40.507 44 36.2173 44H7.78277C3.49308 44 0 40.4171 0 36.0171V7.98286C0 3.52 3.4318 0 7.78277 0Z" fill="#330000"/>
<path d="M21.2647 26.2743H14.4625L13.053 30.6743C12.9917 30.8629 12.8692 30.9257 12.6853 30.9257H9.2536C9.06976 30.9257 9.00845 30.8 9.06973 30.6115L14.9527 13.2C15.014 13.0115 15.0753 12.8229 15.1366 12.5715C15.1979 12.1943 15.2591 11.7543 15.2591 11.3772C15.2591 11.3143 15.3205 11.1886 15.3817 11.1886H15.443H20.1616C20.2842 11.1886 20.4068 11.2515 20.4068 11.3143L27.0864 30.6743C27.1477 30.8629 27.0864 30.9886 26.9026 30.9886H23.0419C22.9193 30.9886 22.7968 30.9257 22.7355 30.8L21.2647 26.2743ZM15.5043 22.5029H20.1616C20.0391 22.1257 19.9165 21.6229 19.7327 21.12C19.5488 20.6172 19.4263 20.0515 19.2424 19.4857C19.0586 18.92 18.8747 18.3543 18.6909 17.7257C18.507 17.16 18.3232 16.5943 18.2007 16.0286C18.0781 15.5257 17.9555 15.0229 17.7716 14.5829H17.7104C17.5265 15.4 17.3427 16.2172 17.0976 17.0343C16.8524 17.9143 16.546 18.8572 16.2396 19.8C16.0558 20.8057 15.7494 21.6857 15.5043 22.5029Z" fill="#FF9A00"/>
<path d="M31.131 14.4571C30.5182 14.4571 29.9667 14.2057 29.4765 13.8285C29.0475 13.3885 28.8636 12.7599 28.8636 12.0685C28.8636 11.4399 29.1088 10.8114 29.5377 10.3714C29.9667 9.93137 30.5795 9.7428 31.1923 9.7428C31.9277 9.7428 32.4792 9.99423 32.8469 10.3714C33.2759 10.8114 33.4597 11.4399 33.4597 12.0685C33.4597 12.6971 33.2759 13.3257 32.8469 13.8285C32.3567 14.2685 31.7438 14.4571 31.131 14.4571ZM29.1087 30.7999V16.3428C29.1087 16.1542 29.17 16.0914 29.3539 16.0914H32.9695C33.1533 16.0914 33.2146 16.1542 33.2146 16.3428V30.7999C33.2146 30.9885 33.1533 31.1142 32.9695 31.1142H29.3539C29.17 31.0514 29.1087 30.9257 29.1087 30.7999Z" fill="#FF9A00"/>
</svg>
