<svg width="44" height="44" viewBox="0 0 44 44" fill="none" xmlns="http://www.w3.org/2000/svg">
<path d="M7.78271 0H36.2173C40.507 0 44 3.58286 44 7.98286V36.0171C44 40.4171 40.507 44 36.2173 44H7.78271C3.49301 44 0 40.4171 0 36.0171V7.98286C0 3.52 3.49301 0 7.78271 0Z" fill="#001E36"/>
<path d="M9.92749 30.8V11.5029C9.92749 11.3772 9.9888 11.3143 10.1114 11.3143C10.4178 11.3143 10.7241 11.3143 11.1531 11.3143C11.5821 11.3143 12.0724 11.3143 12.5626 11.2514C13.0529 11.1886 13.6044 11.2514 14.1559 11.1886C14.7075 11.1257 15.259 11.1886 15.8105 11.1886C17.3425 11.1886 18.5682 11.3772 19.61 11.7543C20.5292 12.0686 21.3871 12.5714 22.0612 13.3257C22.6741 13.9543 23.103 14.6457 23.4094 15.4629C23.6545 16.28 23.8384 17.0343 23.8384 17.9143C23.8384 19.5486 23.4707 20.8686 22.7353 21.9372C21.9999 23.0057 20.9581 23.76 19.7938 24.2C18.5682 24.64 17.1587 24.8286 15.688 24.8286C15.259 24.8286 14.9526 24.8286 14.7687 24.8286C14.5849 24.8286 14.3397 24.8286 13.972 24.8286V30.8629C13.972 30.9886 13.9108 31.1143 13.7882 31.1143H13.727H10.2339C9.98877 31.0514 9.92749 30.9886 9.92749 30.8ZM13.9108 14.8972V21.2457C14.1559 21.2457 14.4011 21.3086 14.6462 21.3086H15.6267C16.3621 21.3086 17.0362 21.1829 17.7103 20.9943C18.3231 20.8057 18.8133 20.4914 19.2423 19.9886C19.61 19.5486 19.7938 18.8572 19.7938 18.04C19.7938 17.4743 19.6712 16.8457 19.3648 16.3429C19.0584 15.84 18.6295 15.4629 18.0779 15.2743C17.4039 15.0229 16.6685 14.8972 15.9331 14.8972C15.4428 14.8972 15.0139 14.8972 14.7075 14.8972C14.2785 14.8343 14.0333 14.8972 13.9108 14.8972Z" fill="#31A8FF"/>
<path d="M35.2367 20.0514C34.6852 19.7371 34.0723 19.5485 33.4595 19.4228C32.7854 19.2971 32.1113 19.1714 31.376 19.1714C31.0083 19.1714 30.6406 19.2342 30.2729 19.2971C30.0278 19.36 29.8439 19.4857 29.7214 19.6742C29.6601 19.8 29.5988 19.9885 29.5988 20.1771C29.5988 20.3657 29.6601 20.4914 29.7827 20.68C29.9665 20.8685 30.1503 21.0571 30.3955 21.1828C30.8244 21.4342 31.2534 21.6228 31.6824 21.8114C32.6629 22.1257 33.6433 22.6285 34.5013 23.1942C35.1141 23.5714 35.6044 24.1371 35.9721 24.7657C36.2785 25.3942 36.4011 26.0228 36.4011 26.7142C36.4011 27.5942 36.1559 28.4742 35.6657 29.2285C35.1754 29.9828 34.44 30.5485 33.5821 30.9257C32.6628 31.3028 31.5598 31.5542 30.2729 31.5542C29.415 31.5542 28.6183 31.4914 27.7603 31.3028C27.1475 31.1771 26.4734 30.9885 25.8606 30.6742C25.7381 30.6114 25.6155 30.4857 25.6768 30.2971V27.0285C25.6768 26.9657 25.6768 26.9028 25.7381 26.84C25.7994 26.7771 25.8606 26.84 25.9219 26.84C26.6573 27.28 27.3927 27.5942 28.1893 27.7828C28.8634 27.9714 29.5988 28.0342 30.3342 28.0342C31.0083 28.0342 31.4985 27.9714 31.8662 27.7828C32.1726 27.6571 32.3564 27.3428 32.3564 26.9657C32.3564 26.7142 32.2339 26.4628 31.9275 26.2114C31.6211 25.96 31.0083 25.7085 30.1503 25.3314C29.2311 25.0171 28.3732 24.5142 27.5765 23.9485C27.025 23.5085 26.5347 23.0057 26.167 22.3771C25.8606 21.7485 25.7381 21.12 25.7381 20.4285C25.7381 19.6114 25.9832 18.8571 26.3509 18.1657C26.7799 17.4114 27.5152 16.7828 28.2506 16.4057C29.1086 15.9657 30.2116 15.7771 31.4986 15.7771C32.2339 15.7771 33.0306 15.84 33.7659 15.9657C34.3175 16.0285 34.869 16.2171 35.3592 16.4057C35.4205 16.4057 35.4818 16.4685 35.5431 16.5942C35.5431 16.6571 35.6044 16.72 35.6044 16.8457V19.9257C35.6044 19.9885 35.5431 20.0514 35.5431 20.1142C35.3593 20.1142 35.298 20.1142 35.2367 20.0514Z" fill="#31A8FF"/>
</svg>
