<svg width="44" height="44" viewBox="0 0 44 44" fill="none" xmlns="http://www.w3.org/2000/svg">
<g clip-path="url(#clip0_9_39)">
<path d="M7.79167 0H36.2083C40.5167 0 44 3.57265 44 7.99145V36.0085C44 40.4274 40.5167 44 36.2083 44H7.79167C3.48333 44 0 40.4274 0 36.0085V7.99145C0 3.57265 3.48333 0 7.79167 0Z" fill="#470137"/>
<path d="M23.1367 11.564L17.6367 20.8717L23.5033 30.7435C23.54 30.8187 23.5583 30.8939 23.54 30.9692C23.5217 31.0444 23.4483 30.988 23.3383 31.0068H19.14C18.8467 31.0068 18.645 30.988 18.5167 30.7999C18.1317 30.0102 17.7283 29.2392 17.3433 28.4495C16.9583 27.6786 16.5367 26.8888 16.0967 26.0803C15.6567 25.2717 15.2167 24.4632 14.7767 23.6358H14.74C14.355 24.4444 13.9333 25.2529 13.5117 26.0615C13.09 26.87 12.6683 27.6786 12.265 28.4683C11.8433 29.2581 11.4217 30.0666 11 30.8375C10.9267 31.0256 10.78 31.0444 10.5783 31.0444H6.54501C6.47168 31.0444 6.41668 31.082 6.41668 30.988C6.39834 30.9128 6.41668 30.8375 6.45334 30.7811L12.155 21.1914L6.60001 11.5452C6.54501 11.47 6.52668 11.3948 6.56334 11.3572C6.60001 11.3008 6.67334 11.282 6.74668 11.282H10.9083C11 11.282 11.0917 11.3008 11.165 11.3196C11.2383 11.3572 11.2933 11.4136 11.3483 11.4888C11.6967 12.2974 12.1 13.1059 12.5217 13.9145C12.9617 14.723 13.3833 15.5128 13.8417 16.3025C14.2817 17.0922 14.685 17.882 15.07 18.6905H15.1067C15.4917 17.8632 15.895 17.0546 16.2983 16.2649C16.7017 15.4751 17.1233 14.6854 17.545 13.8957C17.9667 13.1059 18.37 12.2974 18.7733 11.5264C18.7917 11.4512 18.8283 11.376 18.8833 11.3384C18.9567 11.3008 19.03 11.282 19.1217 11.3008H22.99C23.0817 11.282 23.1733 11.3384 23.1917 11.4324C23.21 11.4512 23.1733 11.5264 23.1367 11.564Z" fill="#FF61F6"/>
<path d="M31.6067 31.4017C30.25 31.4205 28.8933 31.1384 27.665 30.5555C26.51 30.0102 25.5567 29.1076 24.8967 27.9982C24.2183 26.8512 23.8883 25.4222 23.8883 23.7111C23.87 22.3196 24.2183 20.947 24.8967 19.7435C25.5933 18.5213 26.6017 17.5059 27.8117 16.829C29.095 16.0957 30.635 15.7384 32.45 15.7384C32.5417 15.7384 32.67 15.7384 32.835 15.7572C33 15.776 33.1833 15.776 33.4033 15.7948V9.85295C33.4033 9.72132 33.4583 9.64611 33.5867 9.64611H37.3083C37.4 9.62731 37.4733 9.70252 37.4917 9.77773C37.4917 9.79654 37.4917 9.81534 37.4917 9.81534V27.7162C37.4917 28.0547 37.51 28.4307 37.5283 28.8444C37.565 29.2393 37.5833 29.6153 37.6017 29.935C37.6017 30.0666 37.5467 30.1794 37.4183 30.2359C36.465 30.6495 35.4567 30.9504 34.43 31.1384C33.495 31.3077 32.56 31.4017 31.6067 31.4017ZM33.4033 27.641V19.3675C33.2383 19.3299 33.0733 19.2923 32.9083 19.2735C32.7067 19.2547 32.505 19.2359 32.3033 19.2359C31.5883 19.2359 30.8733 19.3863 30.2317 19.7247C29.6083 20.0444 29.0767 20.5145 28.6733 21.1162C28.27 21.7179 28.0683 22.5265 28.0683 23.5042C28.05 24.1624 28.16 24.8205 28.38 25.441C28.5633 25.9487 28.8383 26.4 29.205 26.776C29.5533 27.1145 29.975 27.3777 30.4517 27.5282C30.9467 27.6974 31.46 27.7726 31.9733 27.7726C32.2483 27.7726 32.505 27.7538 32.7433 27.735C32.9817 27.7538 33.1833 27.7162 33.4033 27.641Z" fill="#FF61F6"/>
</g>
<defs>
<clipPath id="clip0_9_39">
<rect width="44" height="44" fill="white"/>
</clipPath>
</defs>
</svg>
