<?xml version="1.0" encoding="utf-8"?>
<!-- Generator: Adobe Illustrator 26.0.1, SVG Export Plug-In . SVG Version: 6.00 Build 0)  -->
<svg version="1.1" id="Layer_1" xmlns="http://www.w3.org/2000/svg" xmlns:xlink="http://www.w3.org/1999/xlink" x="0px" y="0px"
	 viewBox="0 0 112 48" style="enable-background:new 0 0 112 48;" xml:space="preserve">
<style type="text/css">
	.st0{fill:#092E20;}
	.st1{fill:#FFFFFF;}
</style>
<g>
	<path class="st0" d="M112,41.8c0,3.4-2.8,6.2-6.2,6.2H6.2C2.8,48,0,45.2,0,41.8V6.2C0,2.8,2.8,0,6.2,0h99.6c3.4,0,6.2,2.8,6.2,6.2
		V41.8z"/>
	<g>
		<g>
			<path class="st1" d="M19.3,7.5h5.3v24.6c-2.7,0.5-4.7,0.7-6.9,0.7c-6.5,0-9.9-2.9-9.9-8.5c0-5.4,3.6-8.9,9.1-8.9
				c0.9,0,1.5,0.1,2.3,0.3L19.3,7.5L19.3,7.5z M19.3,19.9c-0.6-0.2-1.1-0.3-1.8-0.3c-2.7,0-4.2,1.7-4.2,4.5c0,2.8,1.5,4.4,4.2,4.4
				c0.6,0,1.1,0,1.8-0.1C19.3,28.4,19.3,19.9,19.3,19.9z"/>
			<path class="st1" d="M33.1,15.7V28c0,4.2-0.3,6.3-1.2,8c-0.9,1.7-2,2.8-4.3,3.9l-4.9-2.3c2.3-1.1,3.5-2.1,4.2-3.5
				c0.8-1.5,1-3.3,1-7.9V15.7H33.1z M27.8,7.6h5.3V13h-5.3V7.6z"/>
			<path class="st1" d="M36.3,16.9c2.3-1.1,4.6-1.6,7-1.6c2.7,0,4.5,0.7,5.3,2.1c0.4,0.8,0.6,1.8,0.6,4v10.8
				c-2.4,0.3-5.4,0.6-7.6,0.6c-4.4,0-6.4-1.6-6.4-5c0-3.7,2.7-5.4,9.2-6v-1.2c0-1-0.5-1.3-1.8-1.3c-2,0-4.2,0.6-6.2,1.6L36.3,16.9
				L36.3,16.9z M44.6,25.4c-3.5,0.3-4.6,0.9-4.6,2.3c0,1,0.7,1.5,2.1,1.5c0.8,0,1.5-0.1,2.5-0.2L44.6,25.4L44.6,25.4z"/>
			<path class="st1" d="M51.8,16.6c3.1-0.8,5.7-1.2,8.3-1.2c2.7,0,4.7,0.6,5.9,1.8c1.1,1.1,1.4,2.4,1.4,5v10.4h-5.3V22.4
				c0-2-0.7-2.8-2.6-2.8c-0.7,0-1.4,0.1-2.4,0.4v12.6h-5.3L51.8,16.6L51.8,16.6z"/>
			<path class="st1" d="M69.5,35.5c1.9,1,3.7,1.4,5.7,1.4c3.5,0,5-1.4,5-4.8c0,0,0-0.1,0-0.1c-1,0.5-2.1,0.7-3.4,0.7
				c-4.6,0-7.6-3.1-7.6-7.9c0-6,4.4-9.4,12.1-9.4c2.3,0,4.4,0.2,6.9,0.8L86.3,20c-1.4-0.3-0.1,0-1.2-0.1v0.6l0.1,2.2l0,2.9
				c0,0.7,0,1.4,0.1,2.2c0,0.7,0,1,0,1.4c0,4.5-0.4,6.7-1.5,8.4c-1.7,2.6-4.5,3.9-8.6,3.9c-2.1,0-3.9-0.3-5.7-1L69.5,35.5L69.5,35.5
				z M80,19.7c-0.1,0-0.1,0-0.2,0h-0.4c-1,0-2.2,0.2-3.1,0.8c-1.3,0.7-1.9,2-1.9,3.9c0,2.7,1.3,4.2,3.7,4.2c0.7,0,1.3-0.1,2-0.3
				v-0.4v-1.4c0-0.6,0-1.3,0-2l0-2.4l0-1.8L80,19.7L80,19.7z"/>
			<path class="st1" d="M96.3,15.3c5.3,0,8.5,3.3,8.5,8.7c0,5.5-3.4,9-8.7,9c-5.3,0-8.6-3.3-8.6-8.7C87.5,18.8,90.9,15.3,96.3,15.3z
				 M96.2,28.8c2,0,3.2-1.7,3.2-4.6c0-2.9-1.2-4.6-3.2-4.6c-2.1,0-3.3,1.7-3.3,4.6C93,27.1,94.2,28.8,96.2,28.8z"/>
		</g>
	</g>
</g>
</svg>
