<svg width="368" height="229" viewBox="0 0 368 229" fill="none" xmlns="http://www.w3.org/2000/svg">
<path fill-rule="evenodd" clip-rule="evenodd" d="M226.952 1.67386C102.01 1.88738 0.791195 103.238 0.791195 228.23H0C0 102.669 101.787 0.882324 227.348 0.882324C305.028 0.882324 368 63.8544 368 141.534C368 189.624 329.016 228.609 280.926 228.609C254.258 228.609 232.108 209.264 227.743 183.842V228.23H226.952V1.67386ZM227.743 1.67407V141.139H367.208C366.995 64.2095 304.673 1.88706 227.743 1.67407ZM367.208 141.93H281.322V227.817C328.66 227.604 366.995 189.269 367.208 141.93ZM280.53 227.816V175.035H268.605C268.496 175.037 268.387 175.039 268.278 175.039C268.192 175.039 268.106 175.037 268.019 175.035H227.756C227.964 204.09 251.476 227.604 280.53 227.816ZM227.757 174.243H260.057V141.939C251.529 142.045 243.373 145.479 237.334 151.517C231.295 157.556 227.861 165.714 227.757 174.243ZM260.848 141.94V161.597H280.522C280.472 159.1 279.956 156.632 278.999 154.322C277.991 151.888 276.513 149.676 274.65 147.813C272.787 145.95 270.575 144.472 268.141 143.464C265.825 142.505 263.352 141.988 260.848 141.94ZM280.52 162.389H268.662V164.703C268.67 164.796 268.674 164.891 268.674 164.985H268.662V174.242C270.139 174.195 271.598 173.882 272.965 173.315C274.451 172.7 275.802 171.798 276.939 170.66C278.076 169.523 278.978 168.173 279.594 166.687C280.16 165.321 280.473 163.864 280.52 162.389ZM267.871 174.236V165.373H261.107C260.945 165.837 260.861 166.329 260.861 166.83C260.861 168.797 261.642 170.684 263.033 172.075C264.328 173.37 266.052 174.136 267.871 174.236ZM261.473 164.582H264.886V162.415C263.86 162.51 262.894 162.96 262.159 163.695C261.891 163.963 261.661 164.261 261.473 164.582ZM265.677 162.425V164.582H267.851C267.819 164.381 267.764 164.183 267.685 163.994C267.555 163.68 267.365 163.395 267.124 163.155C266.884 162.914 266.598 162.724 266.284 162.594C266.089 162.513 265.885 162.456 265.677 162.425ZM267.871 162.798V162.389H267.458C267.536 162.454 267.611 162.523 267.684 162.595C267.749 162.66 267.811 162.728 267.871 162.798ZM262.542 162.389H260.848V164.085C261.059 163.743 261.311 163.424 261.6 163.135C261.886 162.849 262.203 162.599 262.542 162.389ZM260.848 170.32V174.243H264.754C263.915 173.845 263.143 173.303 262.474 172.634C261.795 171.956 261.248 171.171 260.848 170.32ZM272.762 174.243H280.53V166.461C280.466 166.639 280.397 166.815 280.325 166.99C279.67 168.571 278.709 170.009 277.498 171.22C276.288 172.43 274.85 173.391 273.268 174.046C273.101 174.116 272.932 174.181 272.762 174.243ZM280.53 156.324V141.93H266.13C266.914 142.152 267.687 142.42 268.444 142.733C270.974 143.781 273.273 145.317 275.209 147.254C277.146 149.19 278.682 151.489 279.73 154.019C280.042 154.773 280.309 155.543 280.53 156.324ZM253.255 141.93H227.743V167.456C229.106 161.255 232.216 155.517 236.775 150.957C241.33 146.403 247.061 143.295 253.255 141.93Z" fill="url(#paint0_linear_513_2883)"/>
<defs>
<linearGradient id="paint0_linear_513_2883" x1="0" y1="0.882324" x2="394.662" y2="65.3273" gradientUnits="userSpaceOnUse">
<stop stop-color="#0095FF"/>
<stop offset="1" stop-color="#0077CC"/>
</linearGradient>
</defs>
</svg>
