<svg width="72" height="47" viewBox="0 0 72 47" fill="none" xmlns="http://www.w3.org/2000/svg">
<path d="M16.5024 46.4634L2.99529 42.69L0 9.12366H33.0047L30.0094 42.69L16.5024 46.4634Z" fill="#264DE4"/>
<path d="M27.4098 40.5499L30.0094 11.8833H16.5024V43.5911L27.4098 40.5499Z" fill="#2965F1"/>
<path d="M6.89484 24.3301L7.23393 28.4414H16.5024V24.3301H6.89484Z" fill="#EBEBEB"/>
<path d="M6.16013 15.9948L6.49922 20.1061H16.5024V15.9948H6.16013Z" fill="#EBEBEB"/>
<path d="M16.5023 35.0306L11.8681 33.7915L11.5855 30.525H9.32495H7.45996L8.02511 36.9454L16.5023 39.3108V35.0306Z" fill="#EBEBEB"/>
<path d="M7.74255 0H12.7724V2.08382H9.83361V4.16763H12.7724V6.25145H7.74255C7.74255 6.25145 7.74255 0 7.74255 0Z" fill="black"/>
<path d="M13.7896 0H18.8195V1.80222H15.8807V2.14014H18.8195V6.30777H13.7896V4.39291H16.7284V4.05499H13.7896V0Z" fill="black"/>
<path d="M19.7802 0H24.81V1.80222H21.8713V2.14014H24.81V6.30777H19.7802V4.39291H22.719V4.05499H19.7802V0Z" fill="black"/>
<path d="M26.1099 24.33L26.8446 15.9948H16.5024V20.1061H22.3234L21.9278 24.33H16.5024V28.4413H21.5887L21.0801 33.7917L16.5024 35.0307V39.311L24.9796 36.9456L25.0361 36.2697L25.9969 25.4564L26.1099 24.33Z" fill="white"/>
<path d="M72 9.12366L69.0047 42.69L55.4977 46.4634L41.9906 42.69L38.9953 9.12366H72Z" fill="#E44D26"/>
<path d="M55.4976 43.5911L66.405 40.5499L69.0047 11.8833H55.4976V43.5911Z" fill="#F16529"/>
<path d="M49.6766 20.1061H55.4977V15.9948H45.1554L45.2119 17.1211L46.2292 28.4413H55.4977V24.33H50.0157L49.6766 20.1061Z" fill="#EBEBEB"/>
<path d="M50.5809 30.525H48.3203H46.4553L47.0204 36.9454L55.4977 39.3108V35.0306L50.8635 33.7915L50.5809 30.525Z" fill="#EBEBEB"/>
<path d="M42.0471 0H44.1382V2.08382H46.0597V0H48.1507V6.25145H46.0597V4.16763H44.1382V6.25145H42.0471V0Z" fill="black"/>
<path d="M50.92 2.08382H49.055V0H54.876V2.08382H53.011V6.25145H50.92V2.08382Z" fill="black"/>
<path d="M55.8368 0H58.0408L59.3972 2.19646L60.7536 0H62.9576V6.25145H60.8666V3.15388L59.3972 5.40666H59.3407L57.8713 3.15388V6.25145H55.8368V0Z" fill="black"/>
<path d="M63.9184 0H66.0094V4.16763H68.9482V6.25145H63.9184V0Z" fill="black"/>
<path d="M55.4976 28.4414H60.584L60.0753 33.7917L55.4976 35.0308V39.311L63.9749 36.9456L64.0314 36.2698L64.9921 25.4565L65.1052 24.3301H63.9749H55.4976V28.4414Z" fill="white"/>
<path d="M55.4976 20.1061H65.4442L65.5573 19.205L65.7268 17.1211L65.8399 15.9948H55.4976V18.5291V20.1061Z" fill="white"/>
</svg>
