<svg width="48" height="48" viewBox="0 0 48 48" fill="none" xmlns="http://www.w3.org/2000/svg">
<path d="M48 0H0V48H48V0Z" fill="#F7DF1E"/>
<path d="M32.2346 37.443C33.22 38.9913 34.4868 40.1878 36.6686 40.1878C38.5689 40.1878 39.695 39.2729 39.695 37.9356C39.695 36.3872 38.4986 35.8242 36.3871 34.9092L35.261 34.4166C32.0235 33.0089 29.8417 31.3198 29.8417 27.5896C29.8417 24.2113 32.4458 21.6072 36.4575 21.6072C39.3431 21.6072 41.3842 22.5925 42.8622 25.1966L39.3431 27.4488C38.5689 26.0412 37.7244 25.5485 36.4575 25.5485C35.4018 25.4078 34.4164 26.2523 34.2757 27.3081C34.2757 27.3784 34.2757 27.4488 34.2757 27.5192C34.2757 28.8564 35.1202 29.4195 37.0205 30.2641L38.1466 30.7567C41.9472 32.3755 44.129 34.0647 44.129 37.8652C44.129 41.9474 40.9619 44.1292 36.6686 44.1292C32.5161 44.1292 29.7713 42.1585 28.434 39.5544L32.2346 37.443ZM16.2581 37.8652C16.9619 39.1321 17.5953 40.1878 19.1437 40.1878C20.6217 40.1878 21.5367 39.6248 21.5367 37.3726V22.0295H26.0411V37.443C26.0411 42.0881 23.2962 44.2699 19.2845 44.2699C16.3988 44.4107 13.7243 42.7919 12.5279 40.1174L16.2581 37.8652Z" fill="black"/>
</svg>
