<?xml version="1.0" encoding="utf-8"?>
<!-- Generator: Adobe Illustrator 26.0.1, SVG Export Plug-In . SVG Version: 6.00 Build 0)  -->
<svg version="1.1" id="Layer_1" xmlns="http://www.w3.org/2000/svg" xmlns:xlink="http://www.w3.org/1999/xlink" x="0px" y="0px"
	 viewBox="0 0 80 48" style="enable-background:new 0 0 80 48;" xml:space="preserve">
<style type="text/css">
	.st0{fill:#FFFFFF;}
</style>
<path class="st0" d="M18.9,12.5H34v1.2H20.3v9h12.9v1.2H20.3v9.8h13.9v1.2H18.9L18.9,12.5L18.9,12.5z M35.3,12.5h1.6l7.1,9.8
	l7.3-9.8L61.1,0L44.9,23.3l8.4,11.5h-1.7L44,24.3l-7.6,10.5h-1.6l8.4-11.5L35.3,12.5z M53.9,13.7v-1.2h17.2v1.2h-7.9v21.2h-1.4V13.7
	H53.9z"/>
<path class="st0" d="M0,12.5h1.7l23.8,35.4l-9.9-13.1L1.5,14.2l0,20.6H0V12.5z"/>
<path class="st0" d="M70.9,33.3c0.3,0,0.5-0.2,0.5-0.5c0-0.3-0.2-0.5-0.5-0.5c-0.3,0-0.5,0.2-0.5,0.5C70.4,33.1,70.6,33.3,70.9,33.3
	z M72.3,32c0,0.7,0.6,1.3,1.3,1.4c0,0,0.1,0,0.1,0c0.8,0,1.5-0.5,1.5-1.3c0-0.1,0-0.2,0-0.3v-3.4h-0.8v3.4c0,0.5-0.3,0.8-0.8,0.8
	c-0.4,0-0.7-0.2-0.7-0.6v0H72.3z M76.3,31.9c0,0.9,0.8,1.4,1.8,1.4c1.2,0,1.9-0.6,1.9-1.5c0-0.7-0.4-1.1-1.4-1.3l-0.5-0.1
	c-0.6-0.1-0.9-0.3-0.9-0.7c0-0.4,0.4-0.7,1-0.7c0.5,0,0.9,0.2,1,0.7H80c0-0.8-0.8-1.4-1.7-1.4c-1.1,0-1.8,0.6-1.8,1.4
	c0,0.7,0.4,1.1,1.3,1.3l0.6,0.1c0.6,0.1,0.9,0.4,0.9,0.7c0,0.4-0.4,0.7-1.1,0.7c-0.6,0-1.1-0.3-1.2-0.8L76.3,31.9z"/>
</svg>
