<svg width="80" height="48" viewBox="0 0 80 48" fill="none" xmlns="http://www.w3.org/2000/svg">
<path d="M18.8633 12.4839H33.954V13.6889H20.266V22.6541H33.1318V23.8591H20.266V33.692H34.1475V34.897H18.9117V12.4839H18.8633ZM35.3083 12.4839H36.9044L44.0145 22.3167L51.2696 12.4839L61.1366 0L44.9335 23.3289L53.3011 34.8006H51.6082L44.0145 24.3411L36.3724 34.8006H34.7279L43.1439 23.3289L35.3083 12.4839ZM53.8815 13.6889V12.4839H71.052V13.6889H63.1197V34.8488H61.7654V13.6889H53.8815Z" fill="black"/>
<path d="M0 12.4839H1.74124L25.5865 47.8629L15.7195 34.8006L1.45103 14.1709L1.40267 34.8006H0V12.4839Z" fill="black"/>
<path d="M70.9069 33.2581C71.1971 33.2581 71.3906 33.0171 71.3906 32.7761C71.3906 32.4869 71.1487 32.2941 70.9069 32.2941C70.6167 32.2941 70.4232 32.5351 70.4232 32.7761C70.4232 33.0653 70.6167 33.2581 70.9069 33.2581ZM72.3095 31.9567C72.3095 32.6797 72.89 33.3063 73.6155 33.3545C73.6638 33.3545 73.7122 33.3545 73.7606 33.3545C74.5344 33.4027 75.2116 32.8725 75.26 32.1013C75.26 32.0049 75.26 31.9085 75.26 31.8121V28.3898H74.4861V31.8121C74.4861 32.3423 74.1959 32.6315 73.7122 32.6315C73.3253 32.6797 73.0351 32.3905 72.9867 32.0049V31.9567H72.3095ZM76.2757 31.9085C76.3241 32.7761 77.0496 33.3063 78.1136 33.3063C79.2745 33.3063 80 32.7279 80 31.8121C80 31.0891 79.613 30.7035 78.5973 30.4625L78.0653 30.3179C77.4365 30.1732 77.1947 29.9804 77.1947 29.643C77.1947 29.2092 77.5816 28.92 78.2104 28.92C78.6941 28.8718 79.1294 29.161 79.2261 29.643H79.9516C79.9032 28.8236 79.1777 28.2452 78.2104 28.2452C77.1463 28.2452 76.4208 28.8236 76.4208 29.6912C76.4208 30.4142 76.8077 30.7999 77.6784 31.0409L78.3071 31.1855C78.9359 31.3301 79.2261 31.5711 79.2261 31.9085C79.2261 32.3423 78.7908 32.6315 78.162 32.6315C77.5333 32.6315 77.0496 32.3423 77.0012 31.8603L76.2757 31.9085Z" fill="black"/>
</svg>
