<?xml version="1.0" encoding="utf-8"?>
<!-- Generator: Adobe Illustrator 26.0.1, SVG Export Plug-In . SVG Version: 6.00 Build 0)  -->
<svg version="1.1" id="Layer_1" xmlns="http://www.w3.org/2000/svg" xmlns:xlink="http://www.w3.org/1999/xlink" x="0px" y="0px"
	 viewBox="0 0 128 32" style="enable-background:new 0 0 128 32;" xml:space="preserve">
<style type="text/css">
	.st0{fill:#FFFFFF;}
	.st1{fill:#FF3E00;}
</style>
<path class="st0" d="M41.7,24.1c-1.4,0.1-2.7-0.4-3.8-1.1c-1.1-0.7-1.8-1.7-2.3-3l2.3-0.8c0.3,0.8,0.8,1.4,1.5,1.8
	c0.7,0.5,1.5,0.7,2.3,0.7c0.8,0.1,1.5-0.2,2.2-0.7c0.5-0.5,0.9-1.2,0.8-1.9c0-0.4-0.1-0.7-0.2-0.9c-0.1-0.2-0.3-0.5-0.5-0.7
	c-0.2-0.2-0.5-0.4-0.9-0.6c-0.4-0.2-0.7-0.4-1-0.5c-0.2-0.1-0.7-0.2-1.1-0.4c-0.7-0.2-1.1-0.4-1.4-0.5c-0.4-0.2-0.8-0.4-1.2-0.7
	c-0.4-0.2-0.8-0.5-1.2-0.9c-0.3-0.4-0.5-0.7-0.7-1.1c-0.7-1.7-0.2-3.5,1.1-4.7c1.1-0.9,2.5-1.4,3.9-1.2c1.2-0.1,2.4,0.2,3.4,0.9
	c0.8,0.6,1.5,1.4,1.8,2.4L44.4,11c-0.2-0.5-0.6-0.9-1.1-1.2c-0.6-0.4-1.2-0.5-2-0.5c-0.7-0.1-1.3,0.1-1.8,0.5
	c-0.5,0.4-0.7,0.9-0.7,1.5c0,0.4,0.2,0.8,0.5,1.1c0.3,0.3,0.7,0.5,1.1,0.7c0.4,0.2,1,0.4,1.7,0.7c0.5,0.2,0.8,0.3,1.1,0.4
	c0.2,0.1,0.6,0.2,1,0.4c0.4,0.2,0.7,0.4,1,0.5c0.3,0.2,0.6,0.4,0.8,0.7c0.3,0.2,0.5,0.5,0.7,0.9c0.2,0.4,0.4,0.7,0.4,1.1
	c0.1,0.4,0.2,0.9,0.2,1.4c0.1,1.4-0.5,2.7-1.6,3.6C44.6,23.7,43.2,24.2,41.7,24.1z M57,23.9L51.3,7.3H54l3.8,11.5
	c0.2,0.7,0.4,1.2,0.5,1.9c0.1-0.7,0.3-1.3,0.5-1.9l3.7-11.5h2.6l-5.7,16.6H57z M70.2,23.9V7.3h10.3v2.3h-7.8v4.6h5.1v2.3h-5.1v5.1
	h8.4v2.3H70.2z M87.4,23.9V7.3h2.5v14.2H98v2.4H87.4z M107.3,9.6v14.2h-2.5V9.6h-4.7V7.3H112v2.4H107.3z M117.1,23.9V7.3h10.3v2.3
	h-7.8v4.6h5.1v2.3h-5.1v5.1h8.4v2.3H117.1z"/>
<path class="st1" d="M24.4,4.1C21.5,0,15.8-1.3,11.6,1.4L4.3,6c-2,1.2-3.4,3.3-3.8,5.6c-0.4,1.9-0.1,3.9,0.9,5.6
	c-0.6,0.9-1.1,2-1.2,3.1c-0.4,2.4,0.1,4.8,1.5,6.7c2.9,4.1,8.6,5.4,12.8,2.7l7.3-4.6c2-1.2,3.4-3.3,3.8-5.6c0.4-1.9,0.1-3.9-0.9-5.6
	c0.6-0.9,1.1-2,1.2-3.1C26.3,8.5,25.7,6.1,24.4,4.1z"/>
<path class="st0" d="M10.8,27.5C8.5,28,6,27.2,4.6,25.1c-0.8-1.2-1.2-2.6-0.9-4c0.1-0.2,0.1-0.5,0.2-0.7L4,20.1l0.4,0.3
	c0.9,0.7,1.8,1.1,2.9,1.4l0.3,0.1v0.3c-0.1,0.4,0.1,0.8,0.3,1.1c0.4,0.6,1.2,0.9,1.8,0.7c0.2-0.1,0.3-0.1,0.5-0.2l7.3-4.6
	c0.4-0.2,0.6-0.6,0.7-1c0.1-0.4,0-0.9-0.3-1.2c-0.4-0.6-1.2-0.9-1.8-0.7c-0.2,0.1-0.3,0.1-0.5,0.2l-2.8,1.8c-0.5,0.3-1,0.5-1.5,0.7
	c-2.4,0.6-4.8-0.3-6.2-2.3c-0.8-1.2-1.2-2.6-0.9-4C4.4,11.1,5.2,9.8,6.4,9l7.3-4.6c0.5-0.3,1-0.5,1.5-0.7c2.4-0.6,4.8,0.3,6.2,2.3
	c0.8,1.2,1.2,2.6,0.9,4c-0.1,0.2-0.1,0.5-0.2,0.7L22,11.2l-0.4-0.3c-0.9-0.7-1.8-1.1-2.9-1.4l-0.3-0.1V9.1c0.1-0.4-0.1-0.8-0.3-1.1
	c-0.4-0.6-1.2-0.9-1.8-0.7c-0.2,0.1-0.3,0.1-0.5,0.2l-7.3,4.6c-0.4,0.2-0.6,0.6-0.7,1c-0.1,0.4,0,0.9,0.3,1.2
	c0.4,0.6,1.2,0.9,1.8,0.7c0.2-0.1,0.3-0.1,0.5-0.2l2.8-1.8c0.5-0.3,1-0.5,1.5-0.7c2.4-0.6,4.8,0.3,6.2,2.3c0.8,1.2,1.2,2.6,0.9,4
	c-0.2,1.4-1.1,2.6-2.3,3.4l-7.3,4.6C11.9,27,11.4,27.3,10.8,27.5z"/>
</svg>
