<svg width="128" height="32" viewBox="0 0 128 32" fill="none" xmlns="http://www.w3.org/2000/svg">
<path d="M41.7282 24.142C40.3616 24.2013 39.0545 23.7868 37.9256 23.0763C36.8561 22.3657 36.0837 21.3592 35.6678 20.1157L37.985 19.2868C38.2821 20.0565 38.8168 20.6486 39.5298 21.1223C40.1834 21.596 41.0152 21.8328 41.847 21.7736C42.6194 21.8328 43.3918 21.596 44.0454 21.1223C44.5801 20.6486 44.9367 19.9381 44.8772 19.2276C44.8772 18.8723 44.8178 18.5763 44.6396 18.2802C44.5207 18.0434 44.3425 17.7473 44.1048 17.5697C43.8671 17.3329 43.5701 17.1552 43.2136 16.9776C42.7977 16.8 42.5006 16.6223 42.2035 16.5039C41.9659 16.3855 41.5499 16.2671 41.0746 16.0895C40.421 15.8526 39.9457 15.675 39.6486 15.5566C39.2327 15.3789 38.8168 15.1421 38.4009 14.9052C37.985 14.6684 37.5691 14.3724 37.2126 14.0171C36.9155 13.6618 36.6778 13.3066 36.4996 12.8921C35.846 11.2342 36.2619 9.39869 37.6285 8.21449C38.698 7.32633 40.124 6.85265 41.4905 6.97107C42.6788 6.91186 43.8672 7.20791 44.8772 7.85922C45.7091 8.45133 46.3626 9.28027 46.6597 10.2276L44.4019 10.9974C44.1642 10.4645 43.8078 10.05 43.273 9.75395C42.6788 9.39869 42.0253 9.28027 41.3123 9.28027C40.6587 9.22106 40.0051 9.39869 39.4704 9.81316C38.9951 10.1684 38.7574 10.7013 38.8168 11.2934C38.8168 11.7079 38.995 12.1224 39.3515 12.4184C39.6486 12.7145 40.0646 12.9513 40.4211 13.1289C40.7775 13.3066 41.3717 13.4842 42.1441 13.7802C42.6194 13.9579 42.9759 14.0763 43.2136 14.1947C43.4512 14.2539 43.8077 14.4316 44.2236 14.6092C44.5801 14.7868 44.9366 14.9645 45.2337 15.1421C45.5308 15.3789 45.8279 15.5566 46.0656 15.7934C46.3626 16.0302 46.6003 16.3263 46.7785 16.6816C46.9568 17.0368 47.135 17.3921 47.1944 17.7473C47.3133 18.1618 47.3727 18.6355 47.3727 19.1092C47.4321 20.5302 46.838 21.8328 45.7685 22.721C44.6396 23.7276 43.2136 24.2013 41.7282 24.142ZM56.9981 23.9052L51.2941 7.32633H53.9679L57.7705 18.8723C58.0081 19.5236 58.127 20.1157 58.3052 20.7671C58.424 20.1157 58.6023 19.4644 58.84 18.8723L62.5832 7.32633H65.1974L59.4935 23.9052H56.9981ZM70.1884 23.9052V7.32633H80.5268V9.63553H72.6839V14.1947H77.7342V16.5039H72.6839V21.596H81.0615V23.9052H70.1884ZM87.3596 23.9052V7.32633H89.855V21.5368H97.995V23.9052H87.3596ZM107.264 9.63553V23.846H104.768V9.63553H100.075V7.26712H111.958V9.63553H107.264ZM117.127 23.9052V7.32633H127.465V9.63553H119.622V14.1947H124.673V16.5039H119.622V21.596H128V23.9052H117.127Z" fill="#4A4A55"/>
<path d="M24.3788 4.12894C21.4674 -0.0157739 15.7635 -1.25919 11.6044 1.40527L4.29621 6.02367C2.33548 7.26709 0.909524 9.28024 0.493613 11.5894C0.137118 13.4842 0.434197 15.4973 1.38485 17.2144C0.790693 18.1618 0.315344 19.2276 0.137096 20.3526C-0.278814 22.721 0.25595 25.1486 1.68193 27.0433C4.59331 31.188 10.2972 32.4314 14.4563 29.767L21.7645 25.1486C23.7252 23.9052 25.1512 21.892 25.5671 19.5828C25.9236 17.6881 25.6265 15.6749 24.6759 13.9579C25.27 13.0105 25.7453 11.9447 25.9236 10.8197C26.2801 8.45129 25.7454 6.08288 24.3788 4.12894Z" fill="#FF3E00"/>
<path d="M10.8319 27.4578C8.45531 28.0499 6.01926 27.1618 4.59328 25.1486C3.76146 23.9644 3.40497 22.5434 3.70205 21.1223C3.76146 20.8855 3.82091 20.6486 3.88032 20.471L3.99912 20.0565L4.35564 20.3526C5.24688 21.0039 6.19753 21.4776 7.20759 21.7736L7.50467 21.8328V22.1289C7.44526 22.4842 7.56409 22.8986 7.80175 23.1947C8.21766 23.7868 8.99006 24.0828 9.64363 23.9052C9.82188 23.846 9.94074 23.7868 10.119 23.7276L17.4271 19.1092C17.7836 18.8723 18.0213 18.5171 18.1401 18.1026C18.1995 17.6881 18.1401 17.2144 17.843 16.8592C17.4271 16.2671 16.6547 15.971 16.0011 16.1487C15.8229 16.2079 15.7041 16.2671 15.5258 16.3263L12.7333 18.1026C12.2579 18.3987 11.7826 18.6355 11.2479 18.7539C8.87123 19.346 6.43518 18.4579 5.0092 16.4447C4.17738 15.2605 3.82088 13.8395 4.11796 12.4184C4.35563 11.0566 5.18744 9.81317 6.37576 9.04343L13.6839 4.42503C14.1593 4.12898 14.6346 3.89214 15.1693 3.77372C17.546 3.18162 19.982 4.06977 21.408 6.08292C22.2398 7.26712 22.5963 8.68817 22.2992 10.1092C22.2398 10.3461 22.1804 10.5829 22.121 10.7605L22.0022 11.175L21.6456 10.879C20.7544 10.2276 19.8038 9.75396 18.7937 9.4579L18.4966 9.39869V9.10264C18.556 8.74738 18.4372 8.33291 18.1995 8.03686C17.7836 7.44476 17.0112 7.1487 16.3576 7.32634C16.1794 7.38555 16.0605 7.44476 15.8823 7.50397L8.57415 12.1224C8.21766 12.3592 7.97999 12.7145 7.86115 13.1289C7.80174 13.5434 7.86115 14.0171 8.15823 14.3724C8.57414 14.9645 9.34657 15.2605 10.0001 15.0829C10.1784 15.0237 10.2972 14.9645 10.4755 14.9052L13.268 13.1289C13.7433 12.8329 14.2187 12.596 14.7534 12.4776C17.13 11.8855 19.5661 12.7737 20.9921 14.7868C21.8239 15.971 22.1804 17.3921 21.8833 18.8131C21.6457 20.175 20.8138 21.4184 19.6255 22.1881L12.3173 26.8065C11.9014 27.0434 11.3667 27.2802 10.8319 27.4578Z" fill="white"/>
</svg>
