<?xml version="1.0" encoding="utf-8"?>
<!-- Generator: Adobe Illustrator 26.0.1, SVG Export Plug-In . SVG Version: 6.00 Build 0)  -->
<svg version="1.1" id="Layer_1" xmlns="http://www.w3.org/2000/svg" xmlns:xlink="http://www.w3.org/1999/xlink" x="0px" y="0px"
	 viewBox="0 0 32 33" style="enable-background:new 0 0 32 33;" xml:space="preserve">
<style type="text/css">
	.st0{fill-rule:evenodd;clip-rule:evenodd;fill:#1B1F23;}
	.st1{fill:#FFFFFF;}
	.st2{fill:#1B1F23;}
</style>
<g id="github">
	<path class="st0" d="M29.5,16c0,6-3.9,11-9.2,12.8c-0.4,0.1-0.7-0.1-0.8-0.3c-0.1-0.1-0.1-0.2-0.1-0.4c0-0.5,0-1.9,0-3.7
		c0-1.3-0.4-2.1-0.9-2.5c3-0.3,6.2-1.5,6.2-6.7c0-1.5-0.5-2.7-1.4-3.6c0.1-0.3,0.6-1.7-0.1-3.6c0,0-1.1-0.4-3.7,1.4
		C18.3,9.2,17.2,9,16,9c-1.1,0-2.3,0.2-3.4,0.5C10.1,7.7,9,8.1,9,8.1c-0.8,1.8-0.3,3.2-0.1,3.6c-0.9,1-1.4,2.2-1.4,3.6
		c0,5.2,3.1,6.3,6.1,6.7c-0.4,0.3-0.7,0.9-0.9,1.8c-0.8,0.4-2.7,0.9-3.9-1.1c-0.3-0.4-1-1.4-2.1-1.4c-1.1,0-0.5,0.6,0,0.9
		c0.6,0.3,1.2,1.5,1.4,1.9c0.3,0.8,1.2,2.2,4.5,1.6c0,1.1,0,2.2,0,2.5c0,0.1,0,0.3-0.1,0.4c-0.1,0.2-0.4,0.3-0.8,0.2
		C6.4,27,2.5,22,2.5,16c0-7.5,6-13.5,13.5-13.5S29.5,8.5,29.5,16z"/>
</g>
<g>
	<path class="st1" d="M16,2C8.3,2,2,8.3,2,16s6.3,14,14,14s14-6.3,14-14S23.7,2,16,2z M16,29c-1.2,0-2.4-0.2-3.5-0.5C7,27,3,22,3,16
		C3,8.8,8.8,3,16,3s13,5.8,13,13c0,6-4,11-9.5,12.5C18.4,28.9,17.2,29,16,29z"/>
	<path class="st1" d="M18.5,22c0.5,0.4,0.9,1.2,0.9,2.5c0,1.8,0,3.3,0,3.7c0,0.1,0,0.3,0.1,0.4C18.4,28.9,17.2,29,16,29
		c-1.2,0-2.4-0.2-3.5-0.5c0.1-0.1,0.1-0.3,0.1-0.4c0-0.3,0-1.4,0-2.5c-3.4,0.6-4.3-0.8-4.5-1.6c-0.1-0.4-0.8-1.6-1.4-1.9
		c-0.5-0.2-1.1-0.9,0-0.9c1.1,0,1.8,1,2.1,1.4c1.2,2,3.1,1.5,3.9,1.1c0.1-0.9,0.5-1.5,0.9-1.8c-3-0.3-6.1-1.5-6.1-6.7
		c0-1.5,0.5-2.7,1.4-3.6C8.7,11.3,8.2,9.9,9,8.1c0,0,1.1-0.4,3.7,1.4C13.7,9.2,14.9,9,16,9c1.1,0,2.3,0.2,3.4,0.5
		c2.6-1.8,3.7-1.4,3.7-1.4c0.7,1.8,0.3,3.2,0.1,3.6c0.9,1,1.4,2.2,1.4,3.6C24.6,20.5,21.5,21.6,18.5,22z"/>
	<path class="st2" d="M29,16c0,6-4,11-9.5,12.5c-0.1-0.1-0.1-0.2-0.1-0.4c0-0.5,0-1.9,0-3.7c0-1.3-0.4-2.1-0.9-2.5
		c3-0.3,6.2-1.5,6.2-6.7c0-1.5-0.5-2.7-1.4-3.6c0.1-0.3,0.6-1.7-0.1-3.6c0,0-1.1-0.4-3.7,1.4C18.3,9.2,17.2,9,16,9
		c-1.1,0-2.3,0.2-3.4,0.5C10.1,7.7,9,8.1,9,8.1c-0.8,1.8-0.3,3.2-0.1,3.6c-0.9,1-1.4,2.2-1.4,3.6c0,5.2,3.1,6.3,6.1,6.7
		c-0.4,0.3-0.7,0.9-0.9,1.8c-0.8,0.4-2.7,0.9-3.9-1.1c-0.3-0.4-1-1.4-2.1-1.4c-1.1,0-0.5,0.6,0,0.9c0.6,0.3,1.2,1.5,1.4,1.9
		c0.3,0.8,1.2,2.2,4.5,1.6c0,1.1,0,2.2,0,2.5c0,0.1,0,0.3-0.1,0.4C7,27,3,22,3,16C3,8.8,8.8,3,16,3S29,8.8,29,16z"/>
</g>
</svg>
