<?xml version="1.0" encoding="utf-8"?>
<!-- Generator: Adobe Illustrator 26.0.1, SVG Export Plug-In . SVG Version: 6.00 Build 0)  -->
<svg version="1.1" id="Layer_1" xmlns="http://www.w3.org/2000/svg" xmlns:xlink="http://www.w3.org/1999/xlink" x="0px" y="0px"
	 viewBox="0 0 92 32" style="enable-background:new 0 0 92 32;" xml:space="preserve">
<style type="text/css">
	.st0{fill:#FFFFFF;}
</style>
<g>
	<g>
		<g>
			<path class="st0" d="M10.9,0h5v23.3c-2.5,0.4-4.4,0.7-6.5,0.7C3.1,24,0,21.3,0,15.9c0-5.1,3.4-8.4,8.6-8.4c0.8,0,1.4,0.1,2.1,0.3
				L10.9,0L10.9,0z M10.9,11.8c-0.6-0.1-1-0.3-1.7-0.3c-2.5,0-4,1.6-4,4.3s1.4,4.1,4,4.1c0.6,0,1,0,1.7-0.1V11.8z"/>
			<path class="st0" d="M24.1,7.8v11.7c0,4-0.3,6-1.1,7.5c-0.8,1.6-1.8,2.7-4.1,3.7l-4.7-2.1c2.1-1,3.3-2,4-3.3c0.7-1.4,1-3.1,1-7.5
				v-10C19.2,7.8,24.1,7.8,24.1,7.8z M19,0.1h5v5.1h-5V0.1z"/>
			<path class="st0" d="M27,9c2.1-1,4.4-1.6,6.7-1.6c2.5,0,4.2,0.7,5,2c0.4,0.7,0.6,1.7,0.6,3.8v10.2C36.9,23.8,34.1,24,32,24
				c-4.1,0-6.1-1.6-6.1-4.7c0-3.6,2.5-5.1,8.8-5.7v-1.1c0-1-0.4-1.3-1.7-1.3c-1.8,0-4,0.6-5.9,1.6V9H27z M35,16.9
				c-3.3,0.3-4.4,0.9-4.4,2.1c0,1,0.7,1.4,2,1.4c0.7,0,1.4-0.1,2.4-0.1V16.9L35,16.9z"/>
			<path class="st0" d="M41.8,8.7c3-0.7,5.4-1.1,7.9-1.1s4.4,0.6,5.7,1.7c1,1,1.3,2.3,1.3,4.7v9.8h-5v-9.7c0-1.8-0.7-2.7-2.4-2.7
				c-0.7,0-1.3,0.1-2.3,0.4v11.9h-5L41.8,8.7L41.8,8.7z"/>
			<path class="st0" d="M58.5,26.6c1.8,1,3.5,1.3,5.4,1.3c3.3,0,4.7-1.3,4.7-4.6v-0.1c-1,0.4-2,0.7-3.3,0.7c-4.4,0-7.2-3-7.2-7.5
				c0-5.7,4.1-9,11.5-9c2.1,0,4.1,0.1,6.5,0.7l-1.8,3.6c-1.3-0.3-0.1,0-1.1-0.1v0.6l0.1,2.1V17c0,0.7,0,1.3,0.1,2.1c0,0.7,0,1,0,1.3
				c0,4.3-0.4,6.4-1.4,8c-1.6,2.4-4.2,3.7-8.2,3.7c-2,0-3.7-0.3-5.4-1L58.5,26.6L58.5,26.6z M68.5,11.5
				C68.4,11.5,68.4,11.5,68.5,11.5H68c-1,0-2.1,0.1-3,0.7c-1.3,0.7-1.8,1.8-1.8,3.7c0,2.6,1.3,4,3.5,4c0.7,0,1.3-0.1,1.8-0.3v-0.4
				v-1.3c0-0.6,0-1.3,0-1.8v-2.3v-1.7V11.5L68.5,11.5z"/>
			<path class="st0" d="M83.9,7.4c5,0,8.1,3.1,8.1,8.2c0,5.3-3.3,8.5-8.2,8.5c-5,0-8.2-3.1-8.2-8.2C75.6,10.7,78.8,7.4,83.9,7.4z
				 M83.8,20.2c1.8,0,3-1.6,3-4.4s-1.1-4.4-3-4.4c-2,0-3.1,1.6-3.1,4.4C80.8,18.6,82,20.2,83.8,20.2z"/>
		</g>
	</g>
</g>
</svg>
