<svg width="30" height="45" viewBox="0 0 30 45" fill="none" xmlns="http://www.w3.org/2000/svg">
<path d="M7.50001 44.9999C11.64 44.9999 15 41.6399 15 37.4999V29.9999H7.50001C3.36001 29.9999 0 33.3599 0 37.4999C0 41.6399 3.36001 44.9999 7.50001 44.9999Z" fill="#0ACF83"/>
<path d="M0 22.5001C0 18.3601 3.36001 15.0001 7.50001 15.0001H15V30.0001H7.50001C3.36001 30.0001 0 26.6401 0 22.5001Z" fill="#A259FF"/>
<path d="M0 7.50001C0 3.36001 3.36001 0 7.50001 0H15V15H7.50001C3.36001 15 0 11.64 0 7.50001Z" fill="#F24E1E"/>
<path d="M14.9999 0H22.5C26.64 0 30 3.36001 30 7.50001C30 11.64 26.64 15 22.5 15H14.9999V0Z" fill="#FF7262"/>
<path d="M30 22.5001C30 26.6401 26.64 30.0001 22.5 30.0001C18.3599 30.0001 14.9999 26.6401 14.9999 22.5001C14.9999 18.3601 18.3599 15.0001 22.5 15.0001C26.64 15.0001 30 18.3601 30 22.5001Z" fill="#1ABCFE"/>
</svg>
