<?xml version="1.0" encoding="utf-8"?>
<!-- Generator: Adobe Illustrator 26.0.1, SVG Export Plug-In . SVG Version: 6.00 Build 0)  -->
<svg version="1.1" id="Layer_1" xmlns="http://www.w3.org/2000/svg" xmlns:xlink="http://www.w3.org/1999/xlink" x="0px" y="0px"
	 viewBox="0 0 72 47" style="enable-background:new 0 0 72 47;" xml:space="preserve">
<style type="text/css">
	.st0{fill:#264DE4;}
	.st1{fill:#2965F1;}
	.st2{fill:#EBEBEB;}
	.st3{fill:#FFFFFF;}
	.st4{fill:#E44D26;}
	.st5{fill:#F16529;}
</style>
<path class="st0" d="M16.5,46.5L3,42.7L0,9.1h33l-3,33.6L16.5,46.5z"/>
<path class="st1" d="M27.4,40.5L30,11.9H16.5v31.7L27.4,40.5z"/>
<path class="st2" d="M6.9,24.3l0.3,4.1h9.3v-4.1H6.9z"/>
<path class="st2" d="M6.2,16l0.3,4.1h10V16H6.2z"/>
<path class="st2" d="M16.5,35l-4.6-1.2l-0.3-3.3H9.3H7.5L8,36.9l8.5,2.4V35z"/>
<path class="st3" d="M7.7,0h5v2.1H9.8v2.1h2.9v2.1h-5V0z"/>
<path class="st3" d="M13.8,0h5v1.8h-2.9v0.3h2.9v4.2h-5V4.4h2.9V4.1h-2.9V0z"/>
<path class="st3" d="M19.8,0h5v1.8h-2.9v0.3h2.9v4.2h-5V4.4h2.9V4.1h-2.9V0z"/>
<path class="st3" d="M26.1,24.3l0.7-8.3H16.5v4.1h5.8l-0.4,4.2h-5.4v4.1h5.1l-0.5,5.4L16.5,35v4.3l8.5-2.4l0.1-0.7l1-10.8L26.1,24.3
	z"/>
<path class="st4" d="M72,9.1l-3,33.6l-13.5,3.8L42,42.7L39,9.1H72z"/>
<path class="st5" d="M55.5,43.6l10.9-3L69,11.9H55.5V43.6z"/>
<path class="st2" d="M49.7,20.1h5.8V16H45.2l0.1,1.1l1,11.3h9.3v-4.1H50L49.7,20.1z"/>
<path class="st2" d="M50.6,30.5h-2.3h-1.9l0.6,6.4l8.5,2.4V35l-4.6-1.2L50.6,30.5z"/>
<path class="st3" d="M42,0h2.1v2.1h1.9V0h2.1v6.3h-2.1V4.2h-1.9v2.1H42V0z"/>
<path class="st3" d="M50.9,2.1h-1.9V0h5.8v2.1H53v4.2h-2.1V2.1z"/>
<path class="st3" d="M55.8,0H58l1.4,2.2L60.8,0H63v6.3h-2.1V3.2l-1.5,2.3h-0.1l-1.5-2.3v3.1h-2V0z"/>
<path class="st3" d="M63.9,0H66v4.2h2.9v2.1h-5V0z"/>
<path class="st3" d="M55.5,28.4h5.1l-0.5,5.4L55.5,35v4.3l8.5-2.4l0.1-0.7l1-10.8l0.1-1.1H64h-8.5V28.4z"/>
<path class="st3" d="M55.5,20.1h9.9l0.1-0.9l0.2-2.1l0.1-1.1H55.5v2.5V20.1z"/>
</svg>
