<?xml version="1.0" encoding="utf-8"?>
<!-- Generator: Adobe Illustrator 24.1.2, SVG Export Plug-In . SVG Version: 6.00 Build 0)  -->
<svg version="1.1" id="Layer_1" xmlns="http://www.w3.org/2000/svg" xmlns:xlink="http://www.w3.org/1999/xlink" x="0px" y="0px"
	 viewBox="0 0 128 128" style="enable-background:new 0 0 128 128;" xml:space="preserve">
<g>
	<path d="M72.7,24.1c-1.2,0.1-2.4,0.5-3.3,1.3c-0.9,0.8-1.6,1.8-1.9,3L49.4,96.8c-0.5,2,0.1,4.1,1.5,5.5c1.4,1.4,3.6,2,5.5,1.5
		c2-0.5,3.5-2.1,4-4.1l18.1-68.4l0,0c0.5-1.8,0.1-3.7-1.1-5.1C76.3,24.7,74.6,24,72.7,24.1L72.7,24.1z M39.6,31.4
		c-1.3,0-2.5,0.5-3.5,1.3l-34,27.2l0,0C0.8,61,0,62.7,0,64.4c0,1.7,0.8,3.4,2.2,4.5l34.3,26.8l0,0c1.2,1,2.7,1.5,4.3,1.4
		c1.6-0.2,3-0.9,3.9-2.2c1-1.2,1.4-2.8,1.1-4.3c-0.2-1.5-1.1-2.9-2.4-3.8L14.8,64.4l28.4-22.8c1.3-1,2.1-2.5,2.2-4.1
		c0.1-1.6-0.4-3.2-1.5-4.4C42.8,32,41.2,31.4,39.6,31.4L39.6,31.4z M87.8,31.1c-1.6,0-3.1,0.7-4.2,1.9c-1.1,1.2-1.6,2.8-1.4,4.4
		c0.2,1.6,1,3,2.3,4l28.6,22.4L84.8,86.5c-1.3,0.9-2.1,2.3-2.3,3.8c-0.2,1.5,0.2,3.1,1.2,4.3c1,1.2,2.4,2,4,2.1
		c1.6,0.1,3.1-0.4,4.3-1.4l34-27.2l0,0c1.4-1.1,2.1-2.7,2.1-4.5c0-1.7-0.8-3.4-2.2-4.5L91.5,32.4l0,0C90.5,31.5,89.2,31.1,87.8,31.1
		L87.8,31.1z"/>
</g>
</svg>
