<?xml version="1.0" encoding="utf-8"?>
<!-- Generator: Adobe Illustrator 24.1.2, SVG Export Plug-In . SVG Version: 6.00 Build 0)  -->
<svg version="1.1" id="Layer_1" xmlns="http://www.w3.org/2000/svg" xmlns:xlink="http://www.w3.org/1999/xlink" x="0px" y="0px"
	 viewBox="0 0 128 128" style="enable-background:new 0 0 128 128;" xml:space="preserve">
<g>
	<path d="M103.3-0.3V9.9H24.6V-0.3H0v24.6h10.2v79.4H0v24.6h24.6v-24.6H14.4V24.3h10.2V14.1h78.7v10.2h24.6V-0.3H103.3z"/>
	<path d="M90.3,128.3l-14.9-14.9l37.7-37.7L128,90.5L90.3,128.3z"/>
	<path d="M104.6,76.6l-9.4-28.8L43,40.1l28,27.9c3.4-1.9,7.8-1.4,10.7,1.4c3.5,3.5,3.5,9.1,0,12.5s-9.1,3.5-12.5,0
		c-2.9-2.9-3.4-7.2-1.4-10.7l-28.2-28l7.8,52.1l28.8,9.4L104.6,76.6z"/>
</g>
</svg>
