<?xml version="1.0" encoding="utf-8"?>
<!-- Generator: Adobe Illustrator 26.0.1, SVG Export Plug-In . SVG Version: 6.00 Build 0)  -->
<svg version="1.1" id="Layer_1" xmlns="http://www.w3.org/2000/svg" xmlns:xlink="http://www.w3.org/1999/xlink" x="0px" y="0px"
	 viewBox="0 0 320 80" style="enable-background:new 0 0 320 80;" xml:space="preserve">
<style type="text/css">
	.st0{fill:#003153;}
	.st1{font-family:'NotoSansKhmer';}
	.st2{font-size:40px;}
	.st3{fill:#FFFFFF;}
</style>
<path class="st0" d="M40,48h16c0-8.8-7.2-16-16-16H24C24,40.8,31.2,48,40,48z M77.3,0H64v64H16V16h13.3c0-8.8-7.2-16-16-16H0v72
	c0,4.4,3.6,8,8,8h64c4.4,0,8-3.6,8-8V16h13.3C93.3,7.2,86.2,0,77.3,0z"/>
<g>
	<path class="st0" d="M166.9,139.9v-20.8l-8.1,15.5h-3.4l-8.1-15.5v20.8h-6.2v-31.7h6.6l9.4,18l9.5-18h6.6v31.7H166.9z"/>
	<path class="st0" d="M192.8,108.2h6.2l11.6,31.7h-6.3l-2.6-7.9H190l-2.6,7.9h-6.3L192.8,108.2z M200.2,127.7l-4.4-13.1l-4.4,13.1
		H200.2z"/>
	<path class="st0" d="M237.1,116.5c-0.4-0.3-0.7-0.6-1.1-0.8c-0.6-0.4-1.3-0.7-2-1c-0.8-0.3-1.7-0.6-2.6-0.9
		c-0.9-0.3-1.9-0.4-2.8-0.4c-1.3-0.1-2.6,0.2-3.8,0.9c-0.8,0.6-1.3,1.6-1.3,2.6c0,0.8,0.3,1.5,0.8,2c0.7,0.6,1.5,1,2.4,1.3
		c1.1,0.4,2.4,0.7,4,1.2c1.9,0.4,3.7,1,5.4,1.8c1.4,0.6,2.6,1.6,3.5,2.8c0.9,1.4,1.3,3,1.2,4.6c0,1.5-0.3,3-0.9,4.3
		c-0.6,1.2-1.5,2.2-2.6,2.9c-1.1,0.8-2.4,1.3-3.7,1.6c-1.5,0.3-3,0.5-4.5,0.5c-1.6,0-3.2-0.2-4.7-0.5c-1.6-0.3-3.1-0.8-4.5-1.4
		c-1.4-0.6-2.8-1.3-4-2.2l2.7-5.3c0.4,0.4,0.9,0.7,1.4,1c0.8,0.5,1.6,0.9,2.5,1.3c1,0.5,2.1,0.8,3.2,1.1c1.2,0.3,2.3,0.4,3.5,0.4
		c1.3,0.1,2.6-0.2,3.8-0.8c1.3-0.9,1.7-2.7,0.8-4c-0.2-0.2-0.3-0.4-0.6-0.6c-0.9-0.6-1.8-1.1-2.9-1.4c-1.2-0.4-2.7-0.8-4.3-1.3
		c-1.7-0.5-3.4-1.1-5-1.9c-1.2-0.6-2.3-1.5-3-2.6c-0.7-1.2-1-2.6-1-4c-0.1-1.9,0.5-3.8,1.5-5.4c1-1.5,2.5-2.6,4.2-3.3
		c1.8-0.8,3.8-1.2,5.8-1.1c1.4,0,2.8,0.2,4.2,0.5c1.3,0.3,2.5,0.7,3.7,1.3c1.1,0.5,2.1,1.1,3.1,1.7L237.1,116.5z"/>
	<path class="st0" d="M257.9,108.2h6.2l11.6,31.7h-6.3l-2.6-7.9h-11.6l-2.6,7.9h-6.3L257.9,108.2z M265.4,127.7l-4.4-13.1l-4.4,13.1
		H265.4z"/>
	<path class="st0" d="M283.9,108.2l7.8,14.9l7.9-14.9h6.6l-11.5,20.6v11.1h-6.1v-11.2L277,108.2H283.9z"/>
	<path class="st0" d="M319.5,108.2h6.2l11.7,31.7h-6.3l-2.7-7.9h-11.6l-2.6,7.9h-6.3L319.5,108.2z M327,127.7l-4.4-13.1l-4.4,13.1
		H327z"/>
</g>
<g>
	<path d="M159.4,166.9l-2.9-11.3h1.5l1.3,5.7c0.3,1.4,0.6,2.8,0.8,3.9l0,0c0.2-1.1,0.5-2.5,0.9-3.9l1.5-5.7h1.5l1.4,5.7
		c0.3,1.3,0.6,2.7,0.8,3.9l0,0c0.2-1.2,0.6-2.5,0.9-3.9l1.5-5.7h1.5l-3.2,11.3h-1.5L164,161c-0.3-1.2-0.6-2.5-0.7-3.7l0,0
		c-0.2,1.2-0.5,2.5-0.9,3.7l-1.6,5.9H159.4z"/>
	<path d="M173.7,163.1c-0.1,1.4,0.9,2.7,2.4,2.8c0.1,0,0.3,0,0.4,0c0.8,0,1.5-0.1,2.3-0.4l0.3,1.1c-0.9,0.4-1.8,0.5-2.7,0.5
		c-2.1,0.1-3.9-1.4-4-3.5c0-0.2,0-0.4,0-0.6c0-2.5,1.4-4.4,3.8-4.4c2.7,0,3.4,2.3,3.4,3.8c0,0.2,0,0.5-0.1,0.7H173.7z M178,162
		c0.2-1.2-0.6-2.2-1.8-2.4c-0.1,0-0.2,0-0.3,0c-1.3,0.1-2.2,1.1-2.3,2.4H178z"/>
	<path d="M182.9,166.9c0-0.6,0.1-1.4,0.1-2.1V155h1.5v5.1l0,0c0.6-1,1.6-1.6,2.8-1.5c2,0,3.4,1.7,3.4,4.1c0,2.9-1.8,4.4-3.6,4.4
		c-1.1,0.1-2.2-0.5-2.7-1.5h-0.1l-0.1,1.3L182.9,166.9z M184.4,163.6c0,0.2,0,0.4,0.1,0.5c0.3,1,1.2,1.7,2.2,1.7
		c1.5,0,2.5-1.3,2.5-3.1c0-1.6-0.8-3-2.4-3c-1.1,0-2,0.8-2.3,1.8c0,0.2-0.1,0.4-0.1,0.6V163.6z"/>
	<path d="M199.5,155.7c1-0.2,2.1-0.2,3.1-0.2c1.7-0.1,3.3,0.4,4.6,1.4c1.1,1.1,1.7,2.5,1.6,4.1c0.1,1.6-0.5,3.2-1.6,4.4
		c-1.4,1.2-3.2,1.8-5,1.6c-0.9,0-1.8,0-2.7-0.1L199.5,155.7z M200.9,165.7c0.5,0.1,1,0.1,1.5,0.1c3.1,0,4.8-1.7,4.8-4.8
		c0-2.7-1.5-4.4-4.6-4.4c-0.6,0-1.1,0-1.7,0.2V165.7z"/>
	<path d="M213.2,163.1c-0.1,1.4,0.9,2.7,2.4,2.8c0.1,0,0.3,0,0.4,0c0.8,0,1.5-0.1,2.3-0.4l0.3,1.1c-0.9,0.4-1.8,0.5-2.7,0.5
		c-2.1,0.1-3.9-1.4-4-3.5c0-0.2,0-0.4,0-0.6c0-2.5,1.4-4.4,3.8-4.4c2.7,0,3.4,2.3,3.4,3.8c0,0.2,0,0.5-0.1,0.7H213.2z M217.5,162
		c0.2-1.2-0.6-2.2-1.8-2.4c-0.1,0-0.2,0-0.3,0c-1.3,0.1-2.2,1.1-2.3,2.4H217.5z"/>
	<path d="M223,158.7l1.6,4.6c0.3,0.7,0.5,1.4,0.7,2.1h0.1c0.2-0.7,0.4-1.3,0.7-2.1l1.6-4.6h1.5l-3.2,8.1h-1.4l-3.1-8.1H223z"/>
	<path d="M232.9,163.1c-0.1,1.4,0.9,2.7,2.4,2.8c0.1,0,0.3,0,0.4,0c0.8,0,1.5-0.1,2.3-0.4l0.3,1.1c-0.9,0.4-1.8,0.5-2.7,0.5
		c-2.1,0.1-3.9-1.4-4-3.5c0-0.2,0-0.4,0-0.6c0-2.5,1.4-4.4,3.8-4.4c2.7,0,3.4,2.3,3.4,3.8c0,0.2,0,0.5-0.1,0.7H232.9z M237.2,162
		c0.2-1.2-0.6-2.2-1.8-2.4c-0.1,0-0.2,0-0.3,0c-1.3,0.1-2.2,1.1-2.3,2.4H237.2z"/>
	<path d="M242.1,154.9h1.5v11.9h-1.5V154.9z"/>
	<path d="M255.1,162.7c0.2,2.2-1.4,4.1-3.6,4.3c-0.1,0-0.3,0-0.4,0c-2.1,0-3.9-1.7-3.9-3.8c0-0.1,0-0.2,0-0.4
		c-0.2-2.2,1.4-4.1,3.6-4.3c0.1,0,0.3,0,0.4,0c2.1,0,3.9,1.6,3.9,3.8C255.1,162.4,255.1,162.6,255.1,162.7z M248.7,162.8
		c0,1.8,1,3.1,2.5,3.1c1.4,0,2.5-1.3,2.5-3.2c0-1.4-0.7-3.1-2.4-3.1C249.6,159.6,248.7,161.3,248.7,162.8L248.7,162.8z"/>
	<path d="M258.7,161.4c0-1,0-1.9-0.1-2.7h1.3l0.1,1.4l0,0c0.6-1,1.7-1.6,2.9-1.6c2,0,3.4,1.7,3.4,4.1c0,2.9-1.8,4.4-3.7,4.4
		c-1,0-2-0.4-2.5-1.3l0,0v4.4h-1.5v-8.7H258.7z M260.1,163.5c0,0.2,0,0.4,0.1,0.6c0.3,1,1.2,1.7,2.2,1.7c1.6,0,2.5-1.3,2.5-3.1
		c0-1.6-0.9-3-2.4-3c-1.1,0-2,0.8-2.2,1.8c-0.1,0.2-0.1,0.4-0.1,0.6v1.4H260.1z"/>
	<path d="M269.9,160.9c0-0.8,0-1.5-0.1-2.2h1.3l0.1,1.3h0.1c0.5-0.9,1.5-1.5,2.6-1.5c1,0,2,0.6,2.3,1.6l0,0c0.2-0.4,0.5-0.8,0.9-1.1
		c0.5-0.4,1.1-0.6,1.8-0.6c1.1,0,2.7,0.7,2.7,3.5v4.8h-1.4v-4.6c0-1.6-0.6-2.5-1.8-2.5c-0.8,0-1.5,0.6-1.7,1.3
		c-0.1,0.2-0.1,0.5-0.1,0.7v5h-1.4v-4.9c0-1.3-0.6-2.2-1.7-2.2c-1.1,0.1-2,1.1-1.9,2.2v4.9h-1.4L269.9,160.9z"/>
	<path d="M286.4,163.1c-0.1,1.4,0.9,2.7,2.4,2.8c0.1,0,0.3,0,0.4,0c0.8,0,1.5-0.1,2.3-0.4l0.3,1.1c-0.9,0.4-1.8,0.5-2.7,0.5
		c-2.1,0.1-3.9-1.4-4-3.5c0-0.2,0-0.4,0-0.6c0-2.5,1.4-4.4,3.8-4.4c2.7,0,3.4,2.3,3.4,3.8c0,0.2,0,0.5-0.1,0.7H286.4z M290.8,162
		c0.2-1.2-0.6-2.2-1.8-2.4c-0.1,0-0.2,0-0.3,0c-1.3,0.1-2.2,1.1-2.3,2.4H290.8z"/>
	<path d="M295.7,160.9c0-0.8,0-1.5-0.1-2.2h1.3l0.1,1.3l0,0c0.5-1,1.6-1.6,2.7-1.5c1.1,0,2.9,0.7,2.9,3.5v4.9h-1.5v-4.7
		c0-1.3-0.5-2.4-1.9-2.4c-0.9,0-1.7,0.6-2,1.5c-0.1,0.2-0.1,0.5-0.1,0.7v4.9h-1.5v-6H295.7z"/>
	<path d="M308.4,156.4v2.3h2.1v1.1h-2.1v4.4c0,1,0.3,1.6,1.1,1.6c0.3,0,0.6,0,0.9-0.1l0.1,1.1c-0.4,0.1-0.9,0.2-1.3,0.2
		c-0.6,0-1.2-0.2-1.6-0.6c-0.4-0.6-0.7-1.4-0.6-2.1v-4.4h-1.3v-1.2h1.3v-1.9L308.4,156.4z"/>
</g>
<text transform="matrix(1 0 0 1 123.7004 50.7478)" class="st0 st1 st2">ររៀនជំនាញឌីជីថល</text>
<rect x="-188.9" y="16" class="st3" width="168.6" height="45.2"/>
</svg>
