<?xml version="1.0" encoding="utf-8"?>
<!-- Generator: Adobe Illustrator 26.0.1, SVG Export Plug-In . SVG Version: 6.00 Build 0)  -->
<svg version="1.1" id="Layer_1" xmlns="http://www.w3.org/2000/svg" xmlns:xlink="http://www.w3.org/1999/xlink" x="0px" y="0px"
	 viewBox="0 0 1000 1000" style="enable-background:new 0 0 1000 1000;" xml:space="preserve">
<style type="text/css">
	.st0{fill:#003153;}
</style>
<g>
	<path class="st0" d="M257.2,414.3c0,94.7,76.8,171.5,171.5,171.5h171.5l0,0c0-94.7-76.8-171.5-171.5-171.5H257.2L257.2,414.3z
		 M828.7,71.4H686v171.5l0,0v514.4H171.5V242.8h142.7l0,0c0-94.7-76.8-171.5-171.4-171.5H0v685.9l0,0v85.7
		c0,47.4,38.4,85.7,85.7,85.7h685.9c47.4,0,85.7-38.4,85.7-85.7v-85.7l0,0V242.8H1000l0,0C1000.1,148.1,923.3,71.4,828.7,71.4z"/>
</g>
</svg>
