<?xml version="1.0" encoding="utf-8"?>
<!-- Generator: Adobe Illustrator 24.1.2, SVG Export Plug-In . SVG Version: 6.00 Build 0)  -->
<svg version="1.1" id="Layer_1" xmlns="http://www.w3.org/2000/svg" xmlns:xlink="http://www.w3.org/1999/xlink" x="0px" y="0px"
	 viewBox="0 0 2000 2000" style="enable-background:new 0 0 2000 2000;" xml:space="preserve">
<style type="text/css">
	.st0{fill:#003153;}
</style>
<g>
	<path class="st0" d="M771.1,541c0,121.8,98.7,220.5,220.5,220.5h220.5v0c0-121.8-98.7-220.5-220.5-220.5L771.1,541L771.1,541z
		 M1505.9,100h-183.5v220.5h0v661.4H660.9V320.5h183.5v0C844.4,198.7,745.7,100,624,100H440.4v881.9h0v110.2
		c0,60.9,49.4,110.2,110.2,110.2h881.9c60.9,0,110.2-49.4,110.2-110.2V981.9h0V320.5h183.5v0C1726.3,198.7,1627.6,100,1505.9,100z"
		/>
	<g>
		<g>
			<path class="st0" d="M385.6,1657.1v-176.6l-69,131.5h-29.2l-69-131.5v176.6h-52.3v-269h56.1l79.6,153.1l80.3-153.1h55.7v269
				H385.6z"/>
			<path class="st0" d="M605,1388h53l98.9,269h-53.8l-22.4-67.1H582l-22.5,67.1h-53.8L605,1388z M668.5,1553.2l-37-111l-37.2,111
				H668.5z"/>
			<path class="st0" d="M981.2,1458.5c-3-2.7-6.2-5.1-9.7-7.2c-5.4-3.4-11.1-6.3-17.1-8.7c-7.1-2.9-14.4-5.4-21.8-7.4
				c-7.8-2.1-15.8-3.2-23.9-3.2c-14.2,0-24.8,2.6-32,7.9c-7.2,5.3-10.8,12.7-10.8,22.2c0,7.3,2.3,13.1,6.8,17.3
				c4.5,4.3,11.4,7.9,20.5,10.9c9.1,3,20.5,6.3,34.1,9.8c17.7,4.3,33,9.5,46,15.6c13,6.2,23,14.2,29.9,24.1
				c6.9,9.9,10.4,23.1,10.4,39.4c0,14.3-2.7,26.6-8,36.8c-5.1,10-12.7,18.5-22,24.7c-9.7,6.4-20.5,11.1-31.8,13.8
				c-12.4,2.9-25.1,4.4-37.9,4.3c-13.5,0-27-1.4-40.2-4.2c-13.2-2.7-26.2-6.7-38.7-11.9c-12-5-23.5-11.3-34.1-18.8l23.1-45.1
				c2.3,2.3,6.3,5.2,12.1,8.9c6.8,4.2,13.9,7.9,21.2,11c8.8,3.8,18,6.9,27.3,9.3c9.8,2.5,19.8,3.8,29.9,3.8
				c14.1,0,24.9-2.4,32.2-7.1c7.3-4.7,11-11.5,11-20.2c0-8-2.9-14.3-8.7-18.9c-5.8-4.5-13.9-8.5-24.3-11.9
				c-10.4-3.4-22.6-7.1-36.8-11.1c-16.9-4.8-31.1-10.1-42.4-16c-11.4-5.9-19.8-13.4-25.4-22.5c-5.6-9.1-8.3-20.4-8.3-34
				c0-18.4,4.4-33.8,13.1-46.2c8.7-12.5,20.5-21.9,35.4-28.3c14.9-6.4,31.4-9.6,49.6-9.6c12.1-0.1,24.1,1.3,35.8,4.2
				c10.9,2.7,21.5,6.3,31.6,11c9.2,4.2,18.1,9.1,26.5,14.8L981.2,1458.5z"/>
			<path class="st0" d="M1158.2,1388h53l98.9,269h-53.8L1234,1590h-98.8l-22.5,67.1h-53.8L1158.2,1388z M1221.7,1553.2l-37-111
				l-37.2,111H1221.7z"/>
			<path class="st0" d="M1379.5,1388l66.3,126.6l67.4-126.6h56.5l-97.8,175.1v94H1420v-94.7l-97.4-174.3L1379.5,1388z"/>
			<path class="st0" d="M1681.9,1388h53l98.9,269H1780l-22.4-67.1h-98.8l-22.5,67.1h-53.8L1681.9,1388z M1745.4,1553.2l-37-111
				l-37.2,111H1745.4z"/>
		</g>
		<g>
			<path d="M370.1,1871.7l-24.4-96.2h13.1l11.4,48.7c2.9,12,5.4,24,7.1,33.3h0.3c1.6-9.6,4.6-21,7.8-33.4l12.8-48.5h13l11.7,48.8
				c2.7,11.4,5.3,22.8,6.7,33h0.3c2-10.6,4.7-21.3,7.7-33.3l12.7-48.5h12.7l-27.3,96.2h-13l-12.1-50.1c-2.7-10.3-4.8-20.8-6.3-31.4
				h-0.3c-1.9,10.6-4.4,21.1-7.4,31.4l-13.7,50.1H370.1z"/>
			<path d="M491.3,1839.5c0.3,17,11.1,24,23.7,24c9,0,14.4-1.6,19.1-3.6l2.1,9c-4.4,2-12,4.3-23,4.3c-21.3,0-34-14-34-34.8
				c0-20.8,12.3-37.3,32.4-37.3c22.6,0,28.5,19.8,28.5,32.5c0,2-0.2,3.9-0.4,5.9H491.3z M528.1,1830.5c0.1-8-3.3-20.4-17.4-20.4
				c-12.7,0-18.3,11.7-19.3,20.4H528.1z"/>
			<path d="M569.5,1871.7c0.3-4.7,0.6-11.7,0.6-17.8v-83.5h12.4v43.4h0.3c4.4-7.7,12.4-12.7,23.5-12.7c17.1,0,29.3,14.3,29.1,35.3
				c0,24.7-15.6,37-31,37c-10,0-18-3.9-23.1-13h-0.4l-0.6,11.4H569.5z M582.5,1844.1c0,1.5,0.2,3.1,0.6,4.6
				c2.4,8.7,9.7,14.7,18.8,14.7c13.1,0,21-10.7,21-26.5c0-13.8-7.1-25.7-20.6-25.7c-8.6,0-16.6,5.9-19.1,15.4
				c-0.4,1.7-0.7,3.4-0.7,5.1L582.5,1844.1z"/>
			<path d="M710.5,1776.8c8.7-1.3,17.6-2,26.4-2c17.8,0,30.5,4.1,39,12c8.6,7.8,13.6,19,13.6,34.5c0,15.7-4.9,28.5-13.8,37.4
				c-9,9-23.8,13.8-42.5,13.8c-7.5,0-15.1-0.3-22.6-1.1L710.5,1776.8z M723,1861.9c4.2,0.6,8.4,0.8,12.6,0.7c26.5,0,41-14.8,41-40.8
				c0.1-22.7-12.7-37.1-39-37.1c-4.9-0.1-9.8,0.4-14.6,1.3V1861.9z"/>
			<path d="M827,1839.5c0.3,17,11.1,24,23.7,24c9,0,14.4-1.6,19.1-3.6l2.1,9c-4.4,2-12,4.3-23,4.3c-21.3,0-34-14-34-34.8
				c0-20.8,12.3-37.3,32.4-37.3c22.6,0,28.5,19.8,28.5,32.5c0,2-0.2,3.9-0.4,5.9H827z M863.8,1830.5c0.1-8-3.3-20.4-17.4-20.4
				c-12.7,0-18.3,11.7-19.3,20.4H863.8z"/>
			<path d="M910.7,1802.7l13.6,38.8c2.2,5.8,4,11.7,5.6,17.7h0.4c1.6-5.7,3.6-11.4,5.9-17.7l13.4-38.8h13.1l-27.1,69.1h-12
				l-26.3-69.1H910.7z"/>
			<path d="M994.3,1839.5c0.3,17,11.1,24,23.7,24c9,0,14.4-1.6,19.1-3.6l2.1,9c-4.4,2-12,4.3-23,4.3c-21.3,0-34-14-34-34.8
				c0-20.8,12.3-37.3,32.4-37.3c22.6,0,28.5,19.8,28.5,32.5c0,2-0.2,3.9-0.4,5.9H994.3z M1031.1,1830.5c0.1-8-3.3-20.4-17.4-20.4
				c-12.7,0-18.3,11.7-19.3,20.4H1031.1z"/>
			<path d="M1073.1,1770.4h12.6v101.3h-12.6V1770.4z"/>
			<path d="M1183.5,1836.6c0,25.5-17.7,36.7-34.4,36.7c-18.7,0-33.1-13.7-33.1-35.5c0-23.1,15.1-36.7,34.3-36.7
				C1170.1,1801.1,1183.5,1815.5,1183.5,1836.6z M1128.7,1837.3c0,15.1,8.7,26.5,21,26.5c12,0,21-11.3,21-26.8
				c0-11.7-5.9-26.5-20.7-26.5S1128.7,1824.2,1128.7,1837.3z"/>
			<path d="M1213.7,1825.2c0-8.8-0.3-16-0.6-22.6h11.3l0.6,11.8h0.3c5.1-8.4,13.3-13.4,24.5-13.4c16.7,0,29.3,14.1,29.3,35.1
				c0,24.8-15.1,37.1-31.4,37.1c-9.1,0-17.1-4-21.3-10.8h-0.3v37.5h-12.4L1213.7,1825.2z M1226.1,1843.6c0,1.7,0.2,3.4,0.6,5.1
				c2.2,8.6,9.9,14.7,18.8,14.7c13.3,0,21-10.8,21-26.7c0-13.8-7.3-25.7-20.6-25.7c-8.6,0-16.6,6.1-19,15.6
				c-0.5,1.7-0.8,3.4-0.9,5.1L1226.1,1843.6z"/>
			<path d="M1309.2,1821.4c0-7.1-0.1-13-0.6-18.7h11l0.6,11.1h0.4c3.9-6.6,10.3-12.7,21.7-12.7c9.4,0,16.6,5.7,19.6,13.8h0.3
				c1.9-3.5,4.5-6.6,7.7-9c4.1-3.1,8.7-4.9,15.3-4.9c9.1,0,22.7,6,22.7,30v40.7h-12.3v-39.1c0-13.3-4.9-21.3-15-21.3
				c-7.1,0-12.7,5.3-14.8,11.4c-0.7,2-1,4.1-1,6.3v42.7h-12.3v-41.4c0-11-4.9-19-14.4-19c-7.8,0-13.6,6.3-15.6,12.6
				c-0.7,2-1,4-1,6.1v41.7h-12.3V1821.4z"/>
			<path d="M1449.5,1839.5c0.3,17,11.1,24,23.7,24c9,0,14.4-1.6,19.1-3.6l2.1,9c-4.4,2-12,4.3-23,4.3c-21.3,0-34-14-34-34.8
				c0-20.8,12.3-37.3,32.4-37.3c22.6,0,28.5,19.8,28.5,32.5c0,2-0.2,3.9-0.4,5.9H1449.5z M1486.3,1830.5c0.1-8-3.3-20.4-17.4-20.4
				c-12.7,0-18.3,11.7-19.3,20.4H1486.3z"/>
			<path d="M1528.2,1821.4c0-7.1-0.1-13-0.6-18.7h11.1l0.7,11.4h0.3c3.4-6.6,11.4-13,22.8-13c9.6,0,24.4,5.7,24.4,29.4v41.2h-12.6
				v-39.8c0-11.1-4.1-20.4-16-20.4c-7.8,0.1-14.7,5.3-16.8,12.8c-0.6,1.9-0.9,3.9-0.9,5.9v41.5h-12.6L1528.2,1821.4z"/>
			<path d="M1636.3,1782.8v19.8h18v9.6h-18v37.3c0,8.6,2.4,13.4,9.4,13.4c2.5,0,4.9-0.3,7.3-0.9l0.6,9.4c-3.6,1.3-7.3,1.8-11.1,1.7
				c-5.9,0-10.6-1.9-13.6-5.3c-3.6-3.7-4.9-9.8-4.9-18v-37.7h-10.7v-9.6h10.7v-16.6L1636.3,1782.8z"/>
		</g>
	</g>
</g>
</svg>
