<svg width="24" height="24" viewBox="0 0 24 24" fill="none" xmlns="http://www.w3.org/2000/svg">
<g id="adobe-photoshop" clip-path="url(#clip0_513_2957)">
<path id="Vector" d="M4.24511 0H19.7549C22.0947 0 24 1.95429 24 4.35429V19.6457C24 22.0457 22.0947 24 19.7549 24H4.24511C1.90528 24 0 22.0457 0 19.6457V4.35429C0 1.92 1.90528 0 4.24511 0Z" fill="#001E36"/>
<path id="Vector_2" d="M5.41504 16.8V6.27433C5.41504 6.20577 5.44848 6.17146 5.51535 6.17146C5.68248 6.17146 5.84955 6.17146 6.08355 6.17146C6.31755 6.17146 6.58499 6.17146 6.85237 6.13715C7.11981 6.1029 7.42063 6.13715 7.72144 6.10289C8.02232 6.06859 8.32314 6.10289 8.62395 6.10289C9.45959 6.10289 10.1282 6.20577 10.6964 6.41146C11.1978 6.5829 11.6657 6.85715 12.0334 7.26859C12.3677 7.61146 12.6017 7.98859 12.7688 8.43433C12.9025 8.88002 13.0028 9.29146 13.0028 9.77146C13.0028 10.6629 12.8022 11.3829 12.4011 11.9658C12 12.5486 11.4317 12.96 10.7967 13.2C10.1282 13.44 9.35934 13.5429 8.55714 13.5429C8.32314 13.5429 8.15601 13.5429 8.0557 13.5429C7.95544 13.5429 7.8217 13.5429 7.62114 13.5429V16.8343C7.62114 16.9029 7.58775 16.9715 7.52088 16.9715H7.4875H5.58217C5.44846 16.9372 5.41504 16.9029 5.41504 16.8ZM7.58775 8.12577V11.5886C7.72144 11.5886 7.85519 11.6229 7.98888 11.6229H8.5237C8.92483 11.6229 9.29252 11.5543 9.66021 11.4515C9.99446 11.3486 10.2618 11.1771 10.4958 10.9029C10.6964 10.6629 10.7967 10.2858 10.7967 9.84002C10.7967 9.53146 10.7298 9.18859 10.5627 8.91433C10.3955 8.64002 10.1616 8.43433 9.86072 8.33146C9.49308 8.19433 9.09195 8.12577 8.69083 8.12577C8.42339 8.12577 8.18944 8.12577 8.02232 8.12577C7.78832 8.09146 7.65457 8.12577 7.58775 8.12577Z" fill="#31A8FF"/>
<path id="Vector_3" d="M19.22 10.9371C18.9191 10.7657 18.5848 10.6628 18.2506 10.5943C17.8829 10.5257 17.5152 10.4571 17.1141 10.4571C16.9136 10.4571 16.713 10.4914 16.5124 10.5257C16.3787 10.56 16.2784 10.6286 16.2116 10.7314C16.1782 10.8 16.1447 10.9028 16.1447 11.0057C16.1447 11.1086 16.1782 11.1771 16.2451 11.28C16.3453 11.3828 16.4456 11.4857 16.5793 11.5543C16.8133 11.6914 17.0473 11.7943 17.2813 11.8971C17.8161 12.0686 18.3508 12.3428 18.8188 12.6514C19.1531 12.8571 19.4205 13.1657 19.6211 13.5086C19.7882 13.8514 19.8551 14.1943 19.8551 14.5714C19.8551 15.0514 19.7213 15.5314 19.454 15.9428C19.1865 16.3543 18.7854 16.6628 18.3175 16.8686C17.816 17.0743 17.2144 17.2114 16.5124 17.2114C16.0445 17.2114 15.6099 17.1771 15.1419 17.0743C14.8077 17.0057 14.44 16.9028 14.1057 16.7314C14.0389 16.6971 13.972 16.6286 14.0055 16.5257V14.7428C14.0055 14.7086 14.0055 14.6743 14.0389 14.64C14.0723 14.6057 14.1057 14.64 14.1392 14.64C14.5403 14.88 14.9414 15.0514 15.3759 15.1543C15.7436 15.2571 16.1447 15.2914 16.5459 15.2914C16.9136 15.2914 17.1809 15.2571 17.3815 15.1543C17.5486 15.0857 17.6489 14.9143 17.6489 14.7086C17.6489 14.5714 17.5821 14.4343 17.4149 14.2971C17.2478 14.16 16.9136 14.0228 16.4456 13.8171C15.9442 13.6457 15.4762 13.3714 15.0417 13.0628C14.7409 12.8228 14.4734 12.5486 14.2729 12.2057C14.1057 11.8628 14.0389 11.52 14.0389 11.1428C14.0389 10.6971 14.1726 10.2857 14.3732 9.90859C14.6072 9.49715 15.0082 9.15428 15.4094 8.94859C15.8774 8.70859 16.479 8.60571 17.181 8.60571C17.5821 8.60571 18.0166 8.64002 18.4177 8.70859C18.7186 8.74284 19.0194 8.84571 19.2868 8.94859C19.3202 8.94859 19.3537 8.98284 19.3871 9.0514C19.3871 9.08571 19.4205 9.12002 19.4205 9.18859V10.8686C19.4205 10.9028 19.3871 10.9371 19.3871 10.9714C19.2868 10.9714 19.2534 10.9714 19.22 10.9371Z" fill="#31A8FF"/>
</g>
<defs>
<clipPath id="clip0_513_2957">
<rect width="24" height="24" fill="white"/>
</clipPath>
</defs>
</svg>
