<svg width="24" height="24" viewBox="0 0 24 24" fill="none" xmlns="http://www.w3.org/2000/svg">
<g id="adobe-xd" clip-path="url(#clip0_506_1000)">
<g id="Clip path group">
<mask id="mask0_506_1000" style="mask-type:luminance" maskUnits="userSpaceOnUse" x="0" y="0" width="24" height="24">
<g id="clip0_9_39">
<path id="Vector" d="M24 0H0V24H24V0Z" fill="white"/>
</g>
</mask>
<g mask="url(#mask0_506_1000)">
<g id="Group">
<path id="Vector_2" d="M4.25 0H19.75C22.1 0 24 1.94872 24 4.35897V19.641C24 22.0513 22.1 24 19.75 24H4.25C1.9 24 0 22.0513 0 19.641V4.35897C0 1.94872 1.9 0 4.25 0Z" fill="#470137"/>
<path id="Vector_3" d="M12.62 6.30763L9.62003 11.3846L12.82 16.7692C12.84 16.8102 12.85 16.8512 12.84 16.8923C12.83 16.9333 12.79 16.9025 12.73 16.9128H10.44C10.28 16.9128 10.17 16.9025 10.1 16.7999C9.89003 16.3692 9.66999 15.9486 9.45999 15.5179C9.24999 15.0974 9.02003 14.6666 8.78003 14.2256C8.54003 13.7846 8.30003 13.3436 8.06003 12.8922H8.04001C7.83001 13.3333 7.59999 13.7743 7.37003 14.2154C7.14001 14.6564 6.90999 15.0974 6.69001 15.5282C6.45999 15.959 6.23003 16.4 6.00001 16.8204C5.96003 16.923 5.88001 16.9333 5.76999 16.9333H3.57002C3.53002 16.9333 3.50002 16.9538 3.50002 16.9025C3.49001 16.8615 3.50002 16.8204 3.52001 16.7897L6.63001 11.5589L3.60002 6.29737C3.57002 6.25635 3.56002 6.21534 3.58001 6.19483C3.60002 6.16406 3.64001 6.15381 3.68002 6.15381H5.94999C6.00001 6.15381 6.05003 6.16406 6.09001 6.17432C6.12999 6.19483 6.15999 6.22559 6.18999 6.26661C6.38003 6.70766 6.60001 7.14866 6.83003 7.58972C7.07003 8.03072 7.29999 8.46152 7.55003 8.89226C7.79003 9.32301 8.01001 9.75381 8.22001 10.1948H8.24003C8.45003 9.74355 8.67001 9.3025 8.88999 8.87175C9.11003 8.44095 9.33999 8.01021 9.57001 7.57946C9.80003 7.14866 10.02 6.70766 10.24 6.28712C10.25 6.2461 10.27 6.20508 10.3 6.18457C10.34 6.16406 10.38 6.15381 10.43 6.16406H12.54C12.59 6.15381 12.64 6.18457 12.65 6.23585C12.66 6.2461 12.64 6.28712 12.62 6.30763Z" fill="#FF61F6"/>
<path id="Vector_4" d="M17.2402 17.1283C16.5002 17.1385 15.7602 16.9847 15.0902 16.6667C14.4602 16.3693 13.9402 15.877 13.5802 15.2718C13.2102 14.6462 13.0302 13.8667 13.0302 12.9334C13.0202 12.1744 13.2102 11.4257 13.5802 10.7693C13.9602 10.1026 14.5102 9.54876 15.1702 9.17954C15.8702 8.77956 16.7102 8.58467 17.7002 8.58467C17.7502 8.58467 17.8202 8.58467 17.9102 8.59493C18.0002 8.60518 18.1002 8.60518 18.2202 8.61543V5.37443C18.2202 5.30263 18.2502 5.2616 18.3202 5.2616H20.3502C20.4002 5.25135 20.4402 5.29237 20.4502 5.3334C20.4502 5.34366 20.4502 5.35391 20.4502 5.35391V15.118C20.4502 15.3027 20.4602 15.5077 20.4702 15.7334C20.4902 15.9488 20.5002 16.1539 20.5102 16.3283C20.5102 16.4001 20.4802 16.4616 20.4102 16.4924C19.8902 16.718 19.3402 16.8821 18.7802 16.9847C18.2702 17.077 17.7602 17.1283 17.2402 17.1283ZM18.2202 15.077V10.5642C18.1302 10.5437 18.0402 10.5232 17.9502 10.5129C17.8402 10.5027 17.7302 10.4924 17.6202 10.4924C17.2302 10.4924 16.8402 10.5744 16.4902 10.759C16.1502 10.9334 15.8602 11.1898 15.6402 11.518C15.4202 11.8462 15.3102 12.2873 15.3102 12.8206C15.3002 13.1796 15.3602 13.5385 15.4802 13.877C15.5802 14.1539 15.7302 14.4001 15.9302 14.6052C16.1202 14.7898 16.3502 14.9334 16.6102 15.0155C16.8802 15.1078 17.1602 15.1488 17.4402 15.1488C17.5902 15.1488 17.7302 15.1385 17.8602 15.1283C17.9902 15.1385 18.1002 15.118 18.2202 15.077Z" fill="#FF61F6"/>
</g>
</g>
</g>
</g>
<defs>
<clipPath id="clip0_506_1000">
<rect width="24" height="24" fill="white"/>
</clipPath>
</defs>
</svg>
