<svg width="24" height="24" viewBox="0 0 24 24" fill="none" xmlns="http://www.w3.org/2000/svg">
<g id="adobe-illustrator" clip-path="url(#clip0_513_2950)">
<path id="Vector" d="M4.24515 0H19.7549C22.0947 0 24 1.95429 24 4.35429V19.6457C24 22.0457 22.0947 24 19.7549 24H4.24515C1.90532 24 0 22.0457 0 19.6457V4.35429C0 1.92 1.87189 0 4.24515 0Z" fill="#330000"/>
<path id="Vector_2" d="M11.5989 14.3313H7.88861L7.1198 16.7313C7.08636 16.8342 7.01954 16.8685 6.91923 16.8685H5.0474C4.94712 16.8685 4.91368 16.7999 4.9471 16.6971L8.156 7.19991C8.18943 7.09709 8.22287 6.99422 8.2563 6.85709C8.28974 6.65135 8.32312 6.41135 8.32312 6.20566C8.32312 6.17135 8.35661 6.10278 8.39 6.10278H8.42343H10.9972C11.0641 6.10278 11.131 6.13709 11.131 6.17135L14.7744 16.7313C14.8078 16.8342 14.7744 16.9028 14.6741 16.9028H12.5683C12.5014 16.9028 12.4346 16.8685 12.4012 16.7999L11.5989 14.3313ZM8.45687 12.2742H10.9972C10.9304 12.0685 10.8635 11.7942 10.7633 11.5199C10.663 11.2457 10.5961 10.9371 10.4958 10.6285C10.3956 10.3199 10.2953 10.0113 10.195 9.66847C10.0947 9.35991 9.99445 9.05135 9.92763 8.74278C9.86076 8.46847 9.79389 8.19422 9.69358 7.95422H9.66019C9.55989 8.39991 9.45963 8.84566 9.32594 9.29135C9.1922 9.77135 9.02507 10.2857 8.85794 10.7999C8.75769 11.3485 8.59056 11.8285 8.45687 12.2742Z" fill="#FF9A00"/>
<path id="Vector_3" d="M16.9804 7.88565C16.6462 7.88565 16.3453 7.74852 16.078 7.54277C15.844 7.30277 15.7437 6.9599 15.7437 6.58277C15.7437 6.2399 15.8774 5.89708 16.1113 5.65708C16.3453 5.41707 16.6796 5.31421 17.0139 5.31421C17.415 5.31421 17.7158 5.45135 17.9164 5.65708C18.1504 5.89708 18.2506 6.2399 18.2506 6.58277C18.2506 6.92565 18.1504 7.26852 17.9164 7.54277C17.649 7.78277 17.3147 7.88565 16.9804 7.88565ZM15.8773 16.7999V8.91421C15.8773 8.81134 15.9108 8.77708 16.0111 8.77708H17.9832C18.0835 8.77708 18.1169 8.81134 18.1169 8.91421V16.7999C18.1169 16.9028 18.0835 16.9713 17.9832 16.9713H16.0111C15.9108 16.9371 15.8773 16.8685 15.8773 16.7999Z" fill="#FF9A00"/>
</g>
<defs>
<clipPath id="clip0_513_2950">
<rect width="24" height="24" fill="white"/>
</clipPath>
</defs>
</svg>
