<svg width="22" height="24" viewBox="0 0 22 24" fill="none" xmlns="http://www.w3.org/2000/svg">
<g id="css">
<path id="Vector" d="M10.9999 24L2.31828 21.5747L0.393066 0H21.6067L19.6815 21.5747L10.9999 24Z" fill="#264DE4"/>
<path id="Vector_2" d="M18.0107 20.1988L19.6816 1.77344H11V22.1535L18.0107 20.1988Z" fill="#2965F1"/>
<path id="Vector_3" d="M4.82471 9.77417L5.04266 12.4167H10.9999V9.77417H4.82471Z" fill="#EBEBEB"/>
<path id="Vector_4" d="M4.35254 4.4165L4.57049 7.05903H11V4.4165H4.35254Z" fill="#EBEBEB"/>
<path id="Vector_5" d="M10.9994 16.6516L8.02082 15.8551L7.83918 13.7556H6.38622H5.1875L5.55075 17.8823L10.9994 19.4027V16.6516Z" fill="#EBEBEB"/>
<path id="Vector_6" d="M17.1752 9.77393L17.6474 4.4165H11V7.05903H14.7414L14.4872 9.77393H11V12.4165H14.2692L13.9423 15.8554L11 16.6518V19.4029L16.4487 17.8826L16.485 17.4481L17.1026 10.4979L17.1752 9.77393Z" fill="white"/>
</g>
</svg>
