<svg width="24" height="24" viewBox="0 0 24 24" fill="none" xmlns="http://www.w3.org/2000/svg">
<g id="dj" clip-path="url(#clip0_506_1060)">
<g id="Group">
<path id="Vector" d="M21.375 0H2.625C1.17525 0 0 1.17525 0 2.625V21.375C0 22.8247 1.17525 24 2.625 24H21.375C22.8247 24 24 22.8247 24 21.375V2.625C24 1.17525 22.8247 0 21.375 0Z" fill="#092E20"/>
<path id="Vector_2" d="M17.4731 8.83097V15.0397C17.4731 17.179 17.3165 18.205 16.847 19.0921C16.4121 19.9444 15.8381 20.4834 14.6556 21.0748L12.1685 19.8922C13.3512 19.3357 13.925 18.8488 14.2902 18.1007C14.6729 17.3355 14.7948 16.4485 14.7948 14.118V8.83097H17.4731ZM13.2122 4.69482V17.0922C11.8383 17.353 10.8295 17.4574 9.73391 17.4574C6.46415 17.4574 4.75977 15.9792 4.75977 13.1442C4.75977 10.4136 6.56861 8.63979 9.3686 8.63979C9.80336 8.63979 10.1338 8.67446 10.5339 8.7788V4.69482H13.2122ZM9.62957 10.7962C8.273 10.7962 7.49031 11.6311 7.49031 13.0919C7.49031 14.5181 8.23821 15.3007 9.61218 15.3007C9.90771 15.3007 10.1513 15.2833 10.5339 15.2313V10.9352C10.2209 10.831 9.95999 10.7962 9.62957 10.7962ZM17.4731 4.70907V7.45701H14.7948V4.70907H17.4731Z" fill="#FFFFFD"/>
</g>
</g>
<defs>
<clipPath id="clip0_506_1060">
<rect width="24" height="24" fill="white"/>
</clipPath>
</defs>
</svg>
