<svg width="22" height="24" viewBox="0 0 22 24" fill="none" xmlns="http://www.w3.org/2000/svg">
<g id="html">
<path id="Vector" d="M21.3665 0.261963L19.4623 21.6013L10.8754 24.0001L2.28849 21.6013L0.384277 0.261963H21.3665Z" fill="#E44D26"/>
<path id="Vector_2" d="M10.8755 22.1739L17.8097 20.2405L19.4624 2.01611H10.8755V22.1739Z" fill="#F16529"/>
<path id="Vector_3" d="M7.17507 7.24407H10.8757V4.63037H4.30078L4.3367 5.3464L4.98343 12.543H10.8757V9.92935H7.39065L7.17507 7.24407Z" fill="#EBEBEB"/>
<path id="Vector_4" d="M7.74974 13.8674H6.3126H5.12695L5.48621 17.9491L10.8755 19.4529V16.7318L7.9294 15.9441L7.74974 13.8674Z" fill="#EBEBEB"/>
<path id="Vector_5" d="M10.8755 12.5431H14.1091L13.7857 15.9445L10.8755 16.7323V19.4533L16.2648 17.9496L16.3007 17.5199L16.9115 10.6455L16.9834 9.92944H16.2648H10.8755V12.5431Z" fill="white"/>
<path id="Vector_6" d="M10.8755 7.24407H17.1989L17.2708 6.67121L17.3785 5.3464L17.4504 4.63037H10.8755V6.24151V7.24407Z" fill="white"/>
</g>
</svg>
