<svg width="24" height="24" viewBox="0 0 24 24" fill="none" xmlns="http://www.w3.org/2000/svg">
<g id="javascript" clip-path="url(#clip0_506_848)">
<path id="Vector" d="M24 0H0V24H24V0Z" fill="#F7DF1E"/>
<path id="Vector_2" d="M16.1175 18.7216C16.6102 19.4958 17.2436 20.094 18.3345 20.094C19.2847 20.094 19.8477 19.6366 19.8477 18.9679C19.8477 18.1937 19.2495 17.9122 18.1938 17.4547L17.6307 17.2084C16.012 16.5046 14.9211 15.66 14.9211 13.7949C14.9211 12.1058 16.2231 10.8037 18.229 10.8037C19.6718 10.8037 20.6923 11.2964 21.4313 12.5984L19.6718 13.7245C19.2847 13.0207 18.8624 12.7744 18.229 12.7744C17.7011 12.704 17.2084 13.1263 17.1381 13.6542C17.1381 13.6893 17.1381 13.7245 17.1381 13.7597C17.1381 14.4283 17.5603 14.7099 18.5105 15.1322L19.0735 15.3785C20.9738 16.1879 22.0647 17.0325 22.0647 18.9327C22.0647 20.9738 20.4812 22.0647 18.3345 22.0647C16.2583 22.0647 14.8859 21.0794 14.2172 19.7773L16.1175 18.7216ZM8.12926 18.9327C8.48116 19.5662 8.79786 20.094 9.57206 20.094C10.3111 20.094 10.7686 19.8125 10.7686 18.6864V11.0149H13.0208V18.7216C13.0208 21.0442 11.6483 22.1351 9.64246 22.1351C8.19961 22.2055 6.86236 21.3961 6.26416 20.0588L8.12926 18.9327Z" fill="black"/>
</g>
<defs>
<clipPath id="clip0_506_848">
<rect width="24" height="24" fill="white"/>
</clipPath>
</defs>
</svg>
