<svg width="20" height="24" viewBox="0 0 20 24" fill="none" xmlns="http://www.w3.org/2000/svg">
<g id="python">
<path id="path1948" d="M9.88213 0.000163829C9.06525 0.00395947 8.28515 0.0736276 7.59874 0.195088C5.57666 0.552322 5.20953 1.30004 5.20953 2.67897V4.50012H9.98794V5.10716H5.20953H3.41623C2.02749 5.10716 0.811471 5.94188 0.431115 7.52979C-0.00762011 9.3499 -0.0270804 10.4857 0.431115 12.3862C0.770782 13.8008 1.58195 14.8088 2.97069 14.8088H4.61362V12.6256C4.61362 11.0485 5.97825 9.65724 7.59874 9.65724H12.3716C13.7002 9.65724 14.7608 8.56332 14.7608 7.22905V2.67897C14.7608 1.38399 13.6683 0.411214 12.3716 0.195088C11.5507 0.0584449 10.699 -0.00363187 9.88213 0.000163829ZM7.298 1.46488C7.79157 1.46488 8.19465 1.87453 8.19465 2.37823C8.19465 2.88015 7.79157 3.28602 7.298 3.28602C6.80265 3.28602 6.40135 2.88015 6.40135 2.37823C6.40135 1.87453 6.80265 1.46488 7.298 1.46488Z" fill="url(#paint0_linear_506_898)"/>
<path id="path1950" d="M15.3566 5.10693V7.22882C15.3566 8.87388 13.9619 10.2585 12.3715 10.2585H7.59868C6.29132 10.2585 5.20947 11.3774 5.20947 12.6867V17.2368C5.20947 18.5317 6.33555 19.2934 7.59868 19.6649C9.11126 20.1097 10.5617 20.1901 12.3715 19.6649C13.5745 19.3166 14.7607 18.6157 14.7607 17.2368V15.4156H9.98789V14.8086H14.7607H17.1499C18.5387 14.8086 19.0562 13.8399 19.5391 12.3859C20.038 10.8891 20.0168 9.44969 19.5391 7.52956C19.1959 6.14706 18.5404 5.10693 17.1499 5.10693H15.3566ZM12.6723 16.6297C13.1676 16.6297 13.5689 17.0356 13.5689 17.5375C13.5689 18.0412 13.1676 18.4509 12.6723 18.4509C12.1787 18.4509 11.7756 18.0412 11.7756 17.5375C11.7756 17.0356 12.1787 16.6297 12.6723 16.6297Z" fill="url(#paint1_linear_506_898)"/>
<path id="path1894" opacity="0.44382" d="M10.0421 24C13.5787 24 16.4456 23.4441 16.4456 22.7583C16.4456 22.0725 13.5787 21.5166 10.0421 21.5166C6.5056 21.5166 3.63867 22.0725 3.63867 22.7583C3.63867 23.4441 6.5056 24 10.0421 24Z" fill="url(#paint2_radial_506_898)"/>
</g>
<defs>
<linearGradient id="paint0_linear_506_898" x1="0.0947265" y1="-5.16891e-08" x2="11.1132" y2="9.38929" gradientUnits="userSpaceOnUse">
<stop stop-color="#5A9FD4"/>
<stop offset="1" stop-color="#306998"/>
</linearGradient>
<linearGradient id="paint1_linear_506_898" x1="12.5574" y1="17.3844" x2="8.60441" y2="11.845" gradientUnits="userSpaceOnUse">
<stop stop-color="#FFD43B"/>
<stop offset="1" stop-color="#FFE873"/>
</linearGradient>
<radialGradient id="paint2_radial_506_898" cx="0" cy="0" r="1" gradientUnits="userSpaceOnUse" gradientTransform="translate(10.0421 22.7583) rotate(-90) scale(1.24169 5.45774)">
<stop stop-color="#B8B8B8" stop-opacity="0.498039"/>
<stop offset="1" stop-color="#7F7F7F" stop-opacity="0"/>
</radialGradient>
</defs>
</svg>
