<svg width="28" height="24" viewBox="0 0 28 24" fill="none" xmlns="http://www.w3.org/2000/svg">
<g id="react" clip-path="url(#clip0_506_927)">
<path id="Vector" d="M27.2568 11.9653C27.2568 10.1965 25.0294 8.4971 21.584 7.45665C22.3844 3.95375 22.0364 1.17919 20.4703 0.312138C20.0875 0.104046 19.6698 0 19.2522 0V1.21388C19.461 1.21388 19.6698 1.24855 19.8786 1.3526C20.6443 1.76878 20.9575 3.39884 20.7139 5.51445C20.6443 6.0347 20.5399 6.5896 20.4355 7.1445C19.287 6.86705 18.1037 6.65895 16.9204 6.5549C16.2244 5.5838 15.4587 4.68208 14.6235 3.81503C16.4332 2.15029 18.1037 1.24855 19.2522 1.24855V0.0346819C17.7209 0.0346819 15.7371 1.10983 13.7534 2.98266C11.7348 1.14451 9.7511 0.069364 8.25455 0.069364V1.28323C9.40305 1.28323 11.0736 2.18497 12.8833 3.84971C12.0481 4.71676 11.3172 5.6185 10.6212 6.5896C9.43785 6.69365 8.2546 6.90175 7.1061 7.1792C6.9669 6.6243 6.8973 6.10405 6.82765 5.5838C6.58405 3.50289 6.8973 1.87283 7.62815 1.42197C7.83695 1.31792 8.04575 1.28323 8.25455 1.28323V0.069364C7.83695 0.069364 7.3845 0.17341 7.0017 0.381503C5.47035 1.28324 5.12235 4.05781 5.9228 7.526C2.51216 8.56645 0.25 10.2659 0.25 12.0347C0.25 13.8035 2.47736 15.5029 5.9228 16.5434C5.12235 20.0462 5.4704 22.8208 7.0365 23.6879C7.4193 23.896 7.83695 24 8.2894 24C9.8207 24 11.8045 22.9249 13.7882 21.052C15.8067 22.8902 17.7905 23.9653 19.287 23.9653C19.7046 23.9653 20.1571 23.8612 20.5399 23.6532C22.0712 22.7514 22.4192 19.9769 21.6188 16.5086C25.0294 15.4682 27.2568 13.7688 27.2568 11.9653ZM20.0875 8.3237C19.8786 9.01735 19.635 9.74565 19.3566 10.5086C19.1478 10.0578 18.9042 9.6416 18.6257 9.19075C18.3821 8.7399 18.1037 8.3237 17.8253 7.9075C18.5909 8.01155 19.3566 8.1503 20.0875 8.3237ZM17.5469 14.1503C17.1292 14.8786 16.6768 15.6069 16.2244 16.2312C15.3891 16.3006 14.5887 16.3353 13.7186 16.3353C12.8833 16.3353 12.0481 16.3006 11.2476 16.2312C10.7952 15.5722 10.3427 14.8786 9.9251 14.1503C9.50745 13.422 9.12465 12.6936 8.7766 11.9653C9.12465 11.237 9.50745 10.5086 9.9251 9.78035C10.3427 9.052 10.7952 8.3237 11.2476 7.6994C12.0829 7.63005 12.8833 7.59535 13.7534 7.59535C14.5887 7.59535 15.4239 7.63005 16.2244 7.6994C16.6768 8.3584 17.1292 9.052 17.5469 9.78035C17.9645 10.5086 18.3473 11.237 18.6953 11.9653C18.3473 12.7283 17.9645 13.4566 17.5469 14.1503ZM19.3566 13.4566C19.6698 14.1849 19.9134 14.9133 20.1223 15.6416C19.3914 15.8151 18.6257 15.9538 17.8601 16.0925C18.1385 15.6763 18.4169 15.2255 18.6605 14.7746C18.8694 14.3237 19.113 13.9075 19.3566 13.4566ZM13.7534 19.3179C13.1966 18.763 12.7093 18.1734 12.2221 17.5492C12.7093 17.5838 13.2314 17.5838 13.7534 17.5838C14.2754 17.5838 14.7975 17.5838 15.2847 17.5492C14.7975 18.1734 14.2754 18.763 13.7534 19.3179ZM9.6467 16.0925C8.881 15.9885 8.11535 15.8497 7.3845 15.6416C7.59335 14.948 7.83695 14.2197 8.11535 13.4566C8.3242 13.9075 8.5678 14.3237 8.8462 14.7746C9.12465 15.2255 9.40305 15.6763 9.6467 16.0925ZM13.7186 4.6474C14.2754 5.2023 14.7627 5.7919 15.2499 6.4162C14.7627 6.3815 14.2406 6.3815 13.7186 6.3815C13.1966 6.3815 12.6745 6.3815 12.1873 6.4162C12.6745 5.7919 13.1966 5.2023 13.7186 4.6474ZM9.6467 7.87285C9.36825 8.289 9.08985 8.7399 8.8462 9.19075C8.6026 9.6416 8.359 10.0578 8.11535 10.5086C7.80215 9.78035 7.5585 9.052 7.3497 8.3237C8.11535 8.1503 8.8462 8.01155 9.6467 7.87285ZM4.66992 14.7746C2.72098 13.9422 1.46809 12.8671 1.46809 12C1.46809 11.1329 2.72098 10.0578 4.66992 9.22545C5.15716 9.01735 5.6444 8.84395 6.20125 8.6705C6.54925 9.81505 6.9669 10.9249 7.4541 12C6.9669 13.0751 6.54925 14.1849 6.23605 15.3295C5.6792 15.156 5.15716 14.948 4.66992 14.7746ZM7.62815 22.6127C6.8625 22.1966 6.54925 20.5665 6.79285 18.4508C6.86245 17.9306 6.9669 17.3757 7.0713 16.8208C8.21975 17.0983 9.40305 17.3064 10.5864 17.4104C11.2824 18.3815 12.0481 19.2832 12.8833 20.1503C11.0736 21.815 9.40305 22.7167 8.25455 22.7167C8.04575 22.7514 7.83695 22.7167 7.62815 22.6127ZM20.6791 18.4162C20.9227 20.4971 20.6095 22.1272 19.8786 22.5781C19.6698 22.6821 19.461 22.7167 19.2522 22.7167C18.1037 22.7167 16.4332 21.815 14.6235 20.1503C15.4587 19.2832 16.1896 18.3815 16.8856 17.4104C18.0689 17.3064 19.2522 17.0983 20.4007 16.8208C20.5399 17.3411 20.6443 17.896 20.6791 18.4162ZM22.802 14.7746C22.3148 14.9827 21.8276 15.156 21.2707 15.3295C20.9227 14.1849 20.5051 13.0751 20.0178 12C20.5051 10.9249 20.9227 9.81505 21.2359 8.6705C21.7928 8.84395 22.3148 9.01735 22.7672 9.22545C24.7162 10.0578 25.9691 11.1329 25.9691 12C26.0387 12.8323 24.751 13.9422 22.802 14.7746Z" fill="#61DAFB"/>
<path id="Vector_2" d="M13.7533 14.4625C15.1372 14.4625 16.2591 13.3445 16.2591 11.9654C16.2591 10.5863 15.1372 9.46826 13.7533 9.46826C12.3694 9.46826 11.2476 10.5863 11.2476 11.9654C11.2476 13.3445 12.3694 14.4625 13.7533 14.4625Z" fill="#61DAFB"/>
</g>
<defs>
<clipPath id="clip0_506_927">
<rect width="27.5" height="24" fill="white" transform="translate(0.25)"/>
</clipPath>
</defs>
</svg>
