<svg width="20" height="24" viewBox="0 0 20 24" fill="none" xmlns="http://www.w3.org/2000/svg">
<g id="svelte" clip-path="url(#clip0_506_930)">
<path id="Vector" d="M18.3969 3.09671C16.2133 -0.0118289 11.9354 -0.944391 8.81609 1.05395L3.33495 4.51775C1.8644 5.45032 0.794936 6.96018 0.483003 8.69205C0.215631 10.1132 0.438441 11.623 1.15143 12.9108C0.705813 13.6214 0.349301 14.4207 0.215615 15.2645C-0.0963175 17.0408 0.304755 18.8615 1.37424 20.2825C3.55778 23.391 7.83569 24.3236 10.955 22.3253L16.4362 18.8615C17.9067 17.9289 18.9762 16.419 19.2881 14.6871C19.5555 13.2661 19.3327 11.7562 18.6197 10.4684C19.0653 9.75788 19.4218 8.95853 19.5555 8.11478C19.8229 6.33847 19.4218 4.56216 18.3969 3.09671Z" fill="#FF3E00"/>
<path id="Vector_2" d="M8.24824 20.5713C6.46579 21.0154 4.63876 20.3493 3.56927 18.8394C2.94541 17.9513 2.67804 16.8855 2.90085 15.8197C2.94541 15.6421 2.98999 15.4644 3.03455 15.3312L3.12365 15.0204L3.39104 15.2424C4.05947 15.7309 4.77246 16.0862 5.53 16.3082L5.75281 16.3526V16.5747C5.70826 16.8411 5.79738 17.1519 5.97562 17.374C6.28756 17.8181 6.86686 18.0401 7.35703 17.9069C7.49072 17.8625 7.57987 17.8181 7.71356 17.7737L13.1946 14.3099C13.462 14.1322 13.6403 13.8658 13.7294 13.5549C13.7739 13.2441 13.7294 12.8888 13.5066 12.6224C13.1946 12.1783 12.6153 11.9562 12.1251 12.0895C11.9915 12.1339 11.9024 12.1783 11.7687 12.2227L9.67429 13.5549C9.31774 13.777 8.96126 13.9546 8.56024 14.0434C6.77773 14.4875 4.9507 13.8214 3.88121 12.3115C3.25735 11.4234 2.98997 10.3576 3.21278 9.2918C3.39103 8.27045 4.01489 7.33787 4.90613 6.76057L10.3872 3.29677C10.7438 3.07473 11.1003 2.8971 11.5013 2.80829C13.2838 2.36421 15.1108 3.03032 16.1803 4.54019C16.8042 5.42834 17.0715 6.49412 16.8487 7.5599C16.8042 7.73757 16.7596 7.91517 16.7151 8.04837L16.626 8.35925L16.3585 8.13725C15.6901 7.6487 14.9772 7.29347 14.2196 7.07142L13.9968 7.02701V6.80498C14.0413 6.53853 13.9522 6.22768 13.7739 6.00564C13.462 5.56157 12.8827 5.33952 12.3925 5.47275C12.2589 5.51716 12.1697 5.56157 12.036 5.60597L6.55492 9.0698C6.28756 9.2474 6.1093 9.51387 6.02017 9.82467C5.97562 10.1355 6.02017 10.4908 6.24298 10.7573C6.55492 11.2014 7.13424 11.4234 7.62439 11.2902C7.75811 11.2458 7.84721 11.2014 7.98094 11.1569L10.0753 9.82467C10.4318 9.60267 10.7883 9.425 11.1894 9.3362C12.9718 8.89212 14.7989 9.55827 15.8684 11.0681C16.4922 11.9562 16.7596 13.0221 16.5368 14.0878C16.3586 15.1092 15.7347 16.0418 14.8434 16.6191L9.36229 20.0829C9.05036 20.2605 8.64934 20.4381 8.24824 20.5713Z" fill="white"/>
</g>
<defs>
<clipPath id="clip0_506_930">
<rect width="19.5" height="24" fill="white"/>
</clipPath>
</defs>
</svg>
