<svg width="32" height="33" viewBox="0 0 32 33" fill="none" xmlns="http://www.w3.org/2000/svg">
<g clip-path="url(#clip0_890_313)">
<rect x="2" y="3" width="28" height="28" rx="14" fill="white"/>
<path d="M16 3C8.26967 3 2 9.2685 2 17C2 23.1857 6.011 28.4333 11.5748 30.2848C12.2737 30.4143 12.5 29.9803 12.5 29.6117V27.0053C8.60567 27.8523 7.79483 25.3533 7.79483 25.3533C7.15783 23.7352 6.23967 23.3047 6.23967 23.3047C4.96917 22.4355 6.3365 22.4542 6.3365 22.4542C7.74233 22.5522 8.482 23.8973 8.482 23.8973C9.73033 26.037 11.7568 25.4187 12.556 25.0605C12.6808 24.1563 13.0437 23.538 13.445 23.1892C10.3358 22.8333 7.06683 21.6328 7.06683 16.2697C7.06683 14.7402 7.614 13.4918 8.50883 12.5118C8.36417 12.1583 7.88467 10.7338 8.64533 8.8065C8.64533 8.8065 9.82133 8.43083 12.4965 10.2415C13.613 9.93117 14.81 9.776 16 9.77017C17.19 9.776 18.3882 9.93117 19.507 10.2415C22.1798 8.43083 23.3535 8.8065 23.3535 8.8065C24.1153 10.735 23.6358 12.1595 23.4912 12.5118C24.3895 13.4918 24.932 14.7413 24.932 16.2697C24.932 21.6468 21.6572 22.831 18.5398 23.1775C19.0415 23.6115 19.5 24.4632 19.5 25.7698V29.6117C19.5 29.9838 19.724 30.4213 20.4345 30.2837C25.9937 28.4298 30 23.1833 30 17C30 9.2685 23.7315 3 16 3Z" fill="black"/>
</g>
<defs>
<clipPath id="clip0_890_313">
<rect x="2" y="3" width="28" height="28" rx="14" fill="white"/>
</clipPath>
</defs>
</svg>
