<svg width="32" height="33" viewBox="0 0 32 33" fill="none" xmlns="http://www.w3.org/2000/svg">
<path fill-rule="evenodd" clip-rule="evenodd" d="M16 2.9541C8.265 2.9541 2 9.2191 2 16.9541C2 23.1491 6.0075 28.3816 11.5725 30.2366C12.2725 30.3591 12.535 29.9391 12.535 29.5716C12.535 29.2391 12.5175 28.1366 12.5175 26.9641C9 27.6116 8.09 26.1066 7.81 25.3191C7.6525 24.9166 6.97 23.6741 6.375 23.3416C5.885 23.0791 5.185 22.4316 6.3575 22.4141C7.46 22.3966 8.2475 23.4291 8.51 23.8491C9.77 25.9666 11.7825 25.3716 12.5875 25.0041C12.71 24.0941 13.0775 23.4816 13.48 23.1316C10.365 22.7816 7.11 21.5741 7.11 16.2191C7.11 14.6966 7.6525 13.4366 8.545 12.4566C8.405 12.1066 7.915 10.6716 8.685 8.7466C8.685 8.7466 9.8575 8.3791 12.535 10.1816C13.655 9.8666 14.845 9.7091 16.035 9.7091C17.225 9.7091 18.415 9.8666 19.535 10.1816C22.2125 8.3616 23.385 8.7466 23.385 8.7466C24.155 10.6716 23.665 12.1066 23.525 12.4566C24.4175 13.4366 24.96 14.6791 24.96 16.2191C24.96 21.5916 21.6875 22.7816 18.5725 23.1316C19.08 23.5691 19.5175 24.4091 19.5175 25.7216C19.5175 27.5941 19.5 29.0991 19.5 29.5716C19.5 29.9391 19.7625 30.3766 20.4625 30.2366C25.9925 28.3816 30 23.1316 30 16.9541C30 9.2191 23.735 2.9541 16 2.9541Z" fill="#1B1F23"/>
</svg>
