<svg width="32" height="33" viewBox="0 0 32 33" fill="none" xmlns="http://www.w3.org/2000/svg">
<path d="M22.0515 9.13135L16.0644 13.8038L9.94043 9.13135V9.13261L9.94783 9.13893V15.6816L15.9954 20.455L22.0515 15.8659V9.13135Z" fill="#EA4335"/>
<path d="M23.6236 7.99478L22.0513 9.13131V15.8659L26.9988 12.0674V9.77913C26.9988 9.77913 26.3982 6.51098 23.6236 7.99478Z" fill="#FBBC05"/>
<path d="M22.0513 15.8659V24.6008H25.8433C25.8433 24.6008 26.9223 24.4897 27 23.2597V12.0674L22.0513 15.8659Z" fill="#34A853"/>
<path d="M9.94811 24.6085V15.6816L9.94043 15.6753L9.94811 24.6085Z" fill="#C5221F"/>
<path d="M9.94014 9.13244L8.37646 8.00222C5.60179 6.51841 5 9.78532 5 9.78532V12.0735L9.94014 15.6751V9.13244Z" fill="#C5221F"/>
<path d="M9.94043 9.13281V15.6755L9.94811 15.6818V9.13913L9.94043 9.13281Z" fill="#C5221F"/>
<path d="M5 12.0752V23.2675C5.07646 24.4988 6.15673 24.6087 6.15673 24.6087H9.94877L9.94013 15.6755L5 12.0752Z" fill="#4285F4"/>
</svg>
