<svg width="32" height="33" viewBox="0 0 32 33" fill="none" xmlns="http://www.w3.org/2000/svg">
<path d="M16 30.6084C23.732 30.6084 30 24.3404 30 16.6084C30 8.87641 23.732 2.6084 16 2.6084C8.26801 2.6084 2 8.87641 2 16.6084C2 24.3404 8.26801 30.6084 16 30.6084Z" fill="url(#paint0_linear_518_3631)"/>
<path d="M22.9866 10.8172C23.1112 10.0117 22.3454 9.37595 21.6292 9.6904L7.36482 15.9532C6.85123 16.1787 6.8888 16.9567 7.42147 17.1263L10.3631 18.0631C10.9246 18.2419 11.5325 18.1494 12.0228 17.8107L18.655 13.2287C18.855 13.0905 19.073 13.3749 18.9021 13.551L14.1281 18.473C13.665 18.9505 13.7569 19.7596 14.314 20.1089L19.659 23.4607C20.2585 23.8366 21.0297 23.459 21.1418 22.7345L22.9866 10.8172Z" fill="white"/>
<defs>
<linearGradient id="paint0_linear_518_3631" x1="16" y1="2.6084" x2="16" y2="30.6084" gradientUnits="userSpaceOnUse">
<stop stop-color="#37BBFE"/>
<stop offset="1" stop-color="#007DBB"/>
</linearGradient>
</defs>
</svg>
