<?xml version="1.0" encoding="utf-8"?>
<!-- Generator: Adobe Illustrator 24.1.2, SVG Export Plug-In . SVG Version: 6.00 Build 0)  -->
<svg version="1.1" id="Layer_1" xmlns="http://www.w3.org/2000/svg" xmlns:xlink="http://www.w3.org/1999/xlink" x="0px" y="0px"
	 viewBox="0 0 480 298" style="enable-background:new 0 0 480 298;" xml:space="preserve">
<style type="text/css">
	.st0{fill-rule:evenodd;clip-rule:evenodd;}
</style>
<path class="st0" d="M479,164C469.9,78.2,401.8,10.1,316,1c-6.4-0.7-12.9-1-19.5-1c-8.4,0-16.7,0.3-24.9,1
	C127.7,13,13,127.7,1,271.7v24.9C1,133.5,133.1,1.3,296,1v295.5h1v-57.9c5.5,32.2,33,57,66.4,58.3c1,0,1.9,0.1,2.9,0.1
	c1.2,0,2.3,0,3.5-0.1c56-1.7,101.8-43.8,109.1-98.2c0.7-5,1-10.1,1-15.3C480,176.9,479.7,170.4,479,164z M297.1,184h33.3
	c-8.1,1.8-15.5,5.8-21.5,11.8c-6,6-10,13.4-11.8,21.5V184z M339.2,184v42.1h-42.1c0.1-11.1,4.6-21.8,12.5-29.6
	C317.4,188.6,328.1,184.1,339.2,184z M297.1,227.2h52.5c0.1,0,0.2,0,0.3,0c0.1,0,0.3,0,0.4,0h15.6V296
	C328,295.7,297.3,265,297.1,227.2z M350.4,213.7v-3h15.5c-0.1,1.9-0.5,3.8-1.2,5.6c-0.8,1.9-2,3.7-3.5,5.2c-1.5,1.5-3.3,2.7-5.2,3.5
	c-1.8,0.7-3.7,1.2-5.6,1.2V214h0C350.4,213.9,350.4,213.8,350.4,213.7z M356.4,225.9c2.1-0.9,3.9-2.1,5.5-3.7
	c1.6-1.6,2.8-3.5,3.7-5.5c0.1-0.2,0.2-0.5,0.3-0.7v10.2h-10.1C356,226,356.2,226,356.4,225.9z M349.8,186c3.2,1.3,6.1,3.2,8.5,5.7
	c2.4,2.4,4.4,5.3,5.7,8.5c1.3,3,1.9,6.2,2,9.5h-25.7V184C343.5,184,346.7,184.7,349.8,186z M347.1,184h18.8v18.8c-0.3-1-0.6-2-1-3
	c-1.4-3.3-3.4-6.3-5.9-8.8c-2.5-2.5-5.5-4.5-8.8-5.9C349.2,184.6,348.2,184.3,347.1,184z M349.4,214.5v11.6
	c-2.4-0.1-4.6-1.1-6.3-2.8c-1.8-1.8-2.8-4.3-2.8-6.8c0-0.7,0.1-1.3,0.3-1.9H349.4z M341,213.5c0.3-0.4,0.5-0.8,0.9-1.2
	c1-1,2.2-1.5,3.5-1.7v2.8H341z M346.5,213.5v-2.8c0.3,0,0.5,0.1,0.8,0.2c0.4,0.2,0.8,0.4,1.1,0.7c0.3,0.3,0.6,0.7,0.7,1.1
	c0.1,0.2,0.2,0.5,0.2,0.8H346.5z M349.2,210.9c-0.1-0.1-0.2-0.2-0.3-0.3h0.5v0.5C349.3,211.1,349.2,211,349.2,210.9z M342.5,210.7
	c-0.5,0.3-0.9,0.6-1.2,1c-0.4,0.4-0.7,0.8-1,1.2v-2.2H342.5z M342.4,224c0.9,0.9,1.9,1.6,3,2.1h-5.1V221
	C340.8,222.1,341.5,223.1,342.4,224z M366.9,296V184h112C478.7,245.7,428.7,295.7,366.9,296z M297.1,182.9V1
	C397.4,1.3,478.7,82.6,479,182.9H297.1z"/>
<path class="st0" d="M480,183.5V298H0v-1.5c0-8.4,0.3-16.7,1-24.9V297h362.5c1,0,1.9,0.1,2.9,0.1c1.2,0,2.3,0,3.5-0.1H479v-98.2
	C479.7,193.8,480,188.7,480,183.5z"/>
<path class="st0" d="M480,0v183.5c0,5.2-0.3,10.3-1,15.3V1H1v270.6c-0.7,8.2-1,16.5-1,24.9V0H480z"/>
<path class="st0" d="M369.9,297c-1.2,0-2.3,0.1-3.5,0.1c-1,0-2,0-2.9-0.1H369.9z"/>
</svg>
