<svg width="55" height="48" viewBox="0 0 55 48" fill="none" xmlns="http://www.w3.org/2000/svg">
<path d="M54.0135 23.9306C54.0135 20.3931 49.5588 16.9942 42.6679 14.9133C44.2688 7.90751 43.5727 2.35838 40.4405 0.624277C39.6749 0.208092 38.8396 0 38.0043 0V2.42775C38.422 2.42775 38.8396 2.49711 39.2572 2.7052C40.7885 3.53757 41.415 6.79769 40.9277 11.0289C40.7885 12.0694 40.5797 13.1792 40.3709 14.289C38.0739 13.7341 35.7074 13.3179 33.3408 13.1098C31.9487 11.1676 30.4174 9.36416 28.7469 7.63006C32.3663 4.30058 35.7074 2.49711 38.0043 2.49711V0.0693638C34.9417 0.0693638 30.9742 2.21965 27.0067 5.96532C22.9696 2.28902 19.0022 0.138728 16.0091 0.138728V2.56647C18.3061 2.56647 21.6471 4.36994 25.2666 7.69942C23.5961 9.43353 22.1344 11.237 20.7423 13.1792C18.3757 13.3873 16.0092 13.8035 13.7122 14.3584C13.4338 13.2486 13.2946 12.2081 13.1553 11.1676C12.6681 7.00578 13.2946 3.74566 14.7563 2.84393C15.1739 2.63584 15.5915 2.56647 16.0091 2.56647V0.138728C15.1739 0.138728 14.269 0.346821 13.5034 0.763006C10.4407 2.56647 9.74469 8.11561 11.3456 15.052C4.52432 17.1329 0 20.5318 0 24.0694C0 27.6069 4.45471 31.0058 11.3456 33.0867C9.74469 40.0925 10.4408 45.6416 13.573 47.3757C14.3386 47.7919 15.1739 48 16.0788 48C19.1414 48 23.1089 45.8497 27.0763 42.104C31.1134 45.7803 35.0809 47.9306 38.0739 47.9306C38.9092 47.9306 39.8141 47.7225 40.5797 47.3064C43.6423 45.5029 44.3384 39.9538 42.7375 33.0173C49.5588 30.9364 54.0135 27.5376 54.0135 23.9306ZM39.6749 16.6474C39.2572 18.0347 38.77 19.4913 38.2131 21.0173C37.7955 20.1156 37.3083 19.2832 36.7514 18.3815C36.2642 17.4798 35.7074 16.6474 35.1505 15.815C36.6818 16.0231 38.2131 16.3006 39.6749 16.6474ZM34.5937 28.3006C33.7584 29.7572 32.8536 31.2139 31.9487 32.4624C30.2782 32.6012 28.6773 32.6705 26.9371 32.6705C25.2666 32.6705 23.5961 32.6012 21.9952 32.4624C21.0903 31.1445 20.1854 29.7572 19.3502 28.3006C18.5149 26.8439 17.7493 25.3873 17.0532 23.9306C17.7493 22.474 18.5149 21.0173 19.3502 19.5607C20.1854 18.104 21.0903 16.6474 21.9952 15.3988C23.6657 15.2601 25.2666 15.1907 27.0067 15.1907C28.6773 15.1907 30.3478 15.2601 31.9487 15.3988C32.8536 16.7168 33.7584 18.104 34.5937 19.5607C35.429 21.0173 36.1946 22.474 36.8906 23.9306C36.1946 25.4566 35.429 26.9133 34.5937 28.3006ZM38.2131 26.9133C38.8396 28.3699 39.3268 29.8266 39.7445 31.2832C38.2828 31.6301 36.7514 31.9075 35.2201 32.185C35.777 31.3526 36.3338 30.4509 36.821 29.5491C37.2387 28.6474 37.7259 27.815 38.2131 26.9133ZM27.0067 38.6358C25.8931 37.526 24.9186 36.3468 23.9441 35.0983C24.9186 35.1676 25.9627 35.1676 27.0067 35.1676C28.0508 35.1676 29.0949 35.1676 30.0694 35.0983C29.0949 36.3468 28.0508 37.526 27.0067 38.6358ZM18.7934 32.185C17.262 31.9769 15.7307 31.6994 14.269 31.2832C14.6867 29.896 15.1739 28.4393 15.7307 26.9133C16.1484 27.815 16.6356 28.6474 17.1924 29.5491C17.7493 30.4509 18.3061 31.3526 18.7934 32.185ZM26.9371 9.2948C28.0508 10.4046 29.0253 11.5838 29.9998 12.8324C29.0253 12.763 27.9812 12.763 26.9371 12.763C25.8931 12.763 24.849 12.763 23.8745 12.8324C24.849 11.5838 25.8931 10.4046 26.9371 9.2948ZM18.7934 15.7457C18.2365 16.578 17.6797 17.4798 17.1924 18.3815C16.7052 19.2832 16.218 20.1156 15.7307 21.0173C15.1043 19.5607 14.617 18.104 14.1994 16.6474C15.7307 16.3006 17.1924 16.0231 18.7934 15.7457ZM8.83984 29.5491C4.94196 27.8844 2.43617 25.7341 2.43617 24C2.43617 22.2659 4.94196 20.1156 8.83984 18.4509C9.81431 18.0347 10.7888 17.6879 11.9025 17.341C12.5985 19.6301 13.4338 21.8497 14.4082 24C13.4338 26.1503 12.5985 28.3699 11.9721 30.659C10.8584 30.3121 9.81431 29.896 8.83984 29.5491ZM14.7563 45.2254C13.225 44.3931 12.5985 41.1329 13.0857 36.9017C13.2249 35.8613 13.4338 34.7514 13.6426 33.6416C15.9395 34.1965 18.3061 34.6127 20.6727 34.8208C22.0648 36.763 23.5961 38.5665 25.2666 40.3006C21.6471 43.6301 18.3061 45.4335 16.0091 45.4335C15.5915 45.5029 15.1739 45.4335 14.7563 45.2254ZM40.8581 36.8324C41.3454 40.9942 40.7189 44.2543 39.2572 45.1561C38.8396 45.3642 38.422 45.4335 38.0043 45.4335C35.7074 45.4335 32.3663 43.6301 28.7469 40.3006C30.4174 38.5665 31.8791 36.763 33.2712 34.8208C35.6378 34.6127 38.0043 34.1965 40.3013 33.6416C40.5797 34.6821 40.7885 35.7919 40.8581 36.8324ZM45.104 29.5491C44.1296 29.9653 43.1551 30.3121 42.0414 30.659C41.3454 28.3699 40.5101 26.1503 39.5356 24C40.5101 21.8497 41.3454 19.6301 41.9718 17.341C43.0855 17.6879 44.1296 18.0347 45.0344 18.4509C48.9323 20.1156 51.4381 22.2659 51.4381 24C51.5773 25.6647 49.0019 27.8844 45.104 29.5491Z" fill="#61DAFB"/>
<path d="M27.0067 28.9248C29.7745 28.9248 32.0183 26.6888 32.0183 23.9306C32.0183 21.1724 29.7745 18.9364 27.0067 18.9364C24.2389 18.9364 21.9952 21.1724 21.9952 23.9306C21.9952 26.6888 24.2389 28.9248 27.0067 28.9248Z" fill="#61DAFB"/>
</svg>
